{
.appVersion = "3133";
.formatVersion = 3;
DisplayStrings = (
"arhinni
horses
onager
ride herd
hooves
bridle saddle
horseshoe",
"tofu eating wokerati",
"HH/Placeholder HO/Placeholder OO
EHKOR
HashHerHissHorseHung",
"HH/Placeholder HO/Placeholder OO
OrderOilOssa
OggleOh
OchreOeuvre
Oblige",
"Resiled Ricercare Raccoon Reuse Rocs Rhein Rivelling Runrigs Releaser Regrede Railbus Radius Rhinorrhagia Regencies Renig Relaunch Relieving Rubbra Regulars Renounce",
"Eucharis Eurus Encarnalised Eggnogs Esau Ecclesias Engraven Even",

glyphs = (
{
color = 9;
glyphname = E;
lastChange = "2022-10-19 12:56:24 +0000";
layers = (
{
layerId = m01;
shapes = (
{
closed = 1;
nodes = (
(245,0,l),
(230,85,l),
(185,160,l),
(185,640,l),
(230,715,l),
(245,800,l),
(35,800,l),
(50,715,l),
(95,640,l),
(95,160,l),
(50,85,l),
(35,0,l)
);
},
{
closed = 1;
nodes = (
(185,640,l),
(485,640,l),
(485,800,l),
(185,800,l)
);
},
{
closed = 1;
nodes = (
(185,0,l),
(525,0,l),
(525,160,l),
(185,160,l)
);
},
{
closed = 1;
nodes = (
(35,340,l),
(399,340,l),
(429,500,l),
(65,500,l)
);
},
{
closed = 1;
nodes = (
(435,160,l),
(390,85,l),
(375,0,l),
(585,0,l),
(570,85,l),
(525,160,l)
);
},
{
closed = 1;
nodes = (
(530,715,l),
(545,800,l),
(335,800,l),
(350,715,l),
(395,640,l),
(485,640,l)
);
}
);
width = 610;
}
);
unicode = 69;
},
{
color = 4;
glyphname = H;
lastChange = "2022-10-19 12:20:51 +0000";
layers = (
{
layerId = m01;
shapes = (
{
closed = 1;
nodes = (
(655,0,l),
(640,85,l),
(595,160,l),
(595,640,l),
(640,715,l),
(655,800,l),
(445,800,l),
(460,715,l),
(505,640,l),
(505,160,l),
(460,85,l),
(445,0,l)
);
},
{
closed = 1;
nodes = (
(255,0,l),
(240,85,l),
(195,160,l),
(195,640,l),
(240,715,l),
(255,800,l),
(45,800,l),
(60,715,l),
(105,640,l),
(105,160,l),
(60,85,l),
(45,0,l)
);
},
{
closed = 1;
nodes = (
(406,300,o),
(450,344,o),
(450,400,cs),
(450,456,o),
(406,500,o),
(350,500,cs),
(294,500,o),
(250,456,o),
(250,400,cs),
(250,344,o),
(294,300,o),
(350,300,cs)
);
},
{
closed = 1;
nodes = (
(333,370,o),
(320,383,o),
(320,400,cs),
(320,417,o),
(333,430,o),
(350,430,cs),
(367,430,o),
(380,417,o),
(380,400,cs),
(380,383,o),
(367,370,o),
(350,370,cs)
);
},
{
closed = 1;
nodes = (
(406,395,l),
(586,479,l),
(561,533,l),
(380,449,l)
);
},
{
closed = 1;
nodes = (
(139,533,l),
(114,479,l),
(294,395,l),
(320,449,l)
);
}
);
width = 700;
}
);
unicode = 72;
},
{
color = 4;
glyphname = K;
lastChange = "2022-10-19 12:54:26 +0000";
layers = (
{
guides = (
{
angle = 225;
pos = (184,358);
}
);
layerId = m01;
shapes = (
{
closed = 1;
nodes = (
(255,0,l),
(240,85,l),
(195,160,l),
(195,640,l),
(240,715,l),
(255,800,l),
(45,800,l),
(60,715,l),
(105,640,l),
(105,160,l),
(60,85,l),
(45,0,l)
);
},
{
closed = 1;
nodes = (
(240,444,l),
(321,258,o),
(436,76,o),
(518,0,c),
(710,0,l),
(586,95,o),
(419,350,o),
(334,551,c)
);
},
{
closed = 1;
nodes = (
(550,800,l),
(164,414,l),
(184,358,l),
(627,800,l)
);
},
{
closed = 1;
nodes = (
(486,671,l),
(550,800,l),
(385,800,l),
(400,715,l),
(429,671,l)
);
}
);
width = 690;
}
);
metricLeft = "=H";
unicode = 75;
},
{
color = 4;
glyphname = O;
lastChange = "2022-10-19 12:32:34 +0000";
layers = (
{
guides = (
{
angle = 45;
pos = (269,625);
}
);
layerId = m01;
shapes = (
{
closed = 1;
nodes = (
(550,112,ls),
(637,199,o),
(722,364,o),
(722,512,cs),
(722,670,o),
(625,808,o),
(330,808,c),
(210,688,ls),
(123,601,o),
(38,436,o),
(38,288,cs),
(38,130,o),
(135,-8,o),
(430,-8,c)
);
},
{
closed = 1;
nodes = (
(216,138,o),
(124,265,o),
(124,396,cs),
(124,487,o),
(174,576,o),
(230,632,cs),
(260,662,l),
(544,662,o),
(636,535,o),
(636,404,cs),
(636,313,o),
(586,224,o),
(530,168,cs),
(500,138,l)
);
}
);
width = 760;
}
);
unicode = 79;
},
{
color = 4;
glyphname = R;
lastChange = "2022-10-19 12:36:29 +0000";
layers = (
{
background = {
shapes = (
{
closed = 1;
nodes = (
(655,0,l),
(640,85,l),
(595,160,l),
(595,640,l),
(640,715,l),
(655,800,l),
(445,800,l),
(460,715,l),
(505,640,l),
(505,160,l),
(460,85,l),
(445,0,l)
);
},
{
closed = 1;
nodes = (
(255,0,l),
(240,85,l),
(195,160,l),
(195,640,l),
(240,715,l),
(255,800,l),
(45,800,l),
(60,715,l),
(105,640,l),
(105,160,l),
(60,85,l),
(45,0,l)
);
}
);
};
layerId = m01;
shapes = (
{
closed = 1;
nodes = (
(450,511,o),
(418,461,o),
(253,368,c),
(275,315,l),
(285,321,l),
(353,186,o),
(449,55,o),
(518,0,c),
(710,0,l),
(602,72,o),
(456,266,o),
(381,419,c),
(354,365,l),
(496,459,o),
(555,539,o),
(555,602,cs),
(555,736,o),
(441,808,o),
(235,808,cs),
(144,808,o),
(95,806,o),
(45,800,c),
(60,715,l),
(105,640,l),
(105,160,l),
(60,85,l),
(45,0,l),
(255,0,l),
(240,85,l),
(195,160,l),
(195,673,l),
(361,673,o),
(450,629,o),
(450,546,cs)
);
}
);
width = 690;
}
);
metricLeft = "=H";
unicode = 82;
},
{
color = 4;
glyphname = a;
lastChange = "2022-10-19 10:10:44 +0000";
layers = (
{
layerId = m01;
shapes = (
{
closed = 1;
nodes = (
(554,600,l),
(483,600,l),
(483,500,l),
(473,450,l),
(473,200,l),
(473,0,l),
(554,0,l),
(619,0,l),
(604,85,l),
(554,160,l)
);
},
{
closed = 1;
nodes = (
(519,504,l),
(471,567,o),
(386,608,o),
(268,608,c),
(178,518,ls),
(91,431,o),
(45,326,o),
(45,232,cs),
(45,100,o),
(152,-8,o),
(342,-8,c),
(432,82,ls),
(468,118,o),
(498,158,o),
(519,199,c)
);
},
{
closed = 1;
nodes = (
(486,229,o),
(443,168,o),
(409,134,cs),
(391,116,l),
(239,116,o),
(124,181,o),
(124,314,cs),
(124,371,o),
(167,432,o),
(201,466,cs),
(219,484,l),
(371,484,o),
(486,419,o),
(486,286,cs)
);
}
);
width = 670;
}
);
metricLeft = "=o";
unicode = 97;
},
{
color = 9;
glyphname = b;
lastChange = "2022-10-19 10:15:29 +0000";
layers = (
{
guides = (
{
pos = (254,68);
}
);
layerId = m01;
shapes = (
{
closed = 1;
nodes = (
(203,601,l),
(203,860,l),
(122,860,l),
(58,860,l),
(73,775,l),
(123,700,l),
(123,601,l)
);
},
{
closed = 1;
nodes = (
(123,601,l),
(123,160,l),
(73,85,l),
(58,0,l),
(173,0,l),
(193,85,l),
(203,160,l),
(203,601,l)
);
},
{
closed = 1;
nodes = (
(151,115,l),
(198,41,o),
(286,-8,o),
(409,-8,c),
(499,82,ls),
(586,169,o),
(632,274,o),
(632,368,c),
(553,286,l),
(553,229,o),
(510,168,o),
(476,134,cs),
(458,116,l),
(306,116,o),
(191,181,o),
(191,314,cs),
(191,371,o),
(234,432,o),
(268,466,cs),
(286,484,l),
(438,484,o),
(553,419,o),
(553,286,c),
(632,368,l),
(632,500,o),
(526,608,o),
(335,608,c),
(245,518,ls),
(205,478,o),
(173,434,o),
(151,389,c)
);
}
);
width = 677;
}
);
metricLeft = h;
metricRight = "=o";
unicode = 98;
},
{
glyphname = c;
lastChange = "2022-10-19 10:31:24 +0000";
layers = (
{
background = {
shapes = (
{
closed = 1;
nodes = (
(48,82,o),
(128,-8,o),
(340,-8,c),
(460,113,l),
(460,177,l),
(453,183,l),
(438,164,o),
(414,139,o),
(392,120,c),
(231,120,o),
(134,179,o),
(134,260,cs),
(134,352,o),
(173,407,o),
(204,438,cs),
(246,480,l),
(352,480,o),
(429,455,o),
(460,412,c),
(460,592,l),
(412,604,o),
(356,608,o),
(310,608,c),
(181,480,ls),
(101,400,o),
(48,289,o),
(48,193,cs)
);
},
{
closed = 1;
nodes = (
(436,361,l),
(460,361,l),
(460,564,l),
(354,564,l)
);
}
);
};
layerId = m01;
shapes = (
{
closed = 1;
nodes = (
(50,37,o),
(164,-8,o),
(367,-8,c),
(480,116,l),
(251,116,o),
(129,121,o),
(129,284,cs),
(129,352,o),
(161,431,o),
(214,484,c),
(323,484,o),
(414,453,o),
(460,390,c),
(460,562,l),
(410,591,o),
(343,608,o),
(263,608,c),
(173,518,ls),
(85,430,o),
(50,306,o),
(50,202,cs)
);
},
{
closed = 1;
nodes = (
(436,361,l),
(460,361,l),
(460,564,l),
(354,564,l)
);
}
);
width = 520;
},
{
associatedMasterId = m01;
background = {
shapes = (
{
closed = 1;
nodes = (
(439,120,ls),
(512,193,o),
(572,308,o),
(572,406,cs),
(572,555,o),
(415,608,o),
(310,608,c),
(181,480,ls),
(108,407,o),
(48,292,o),
(48,194,cs),
(48,45,o),
(205,-8,o),
(310,-8,c)
);
},
{
closed = 1;
nodes = (
(224,120,o),
(134,179,o),
(134,300,cs),
(134,352,o),
(173,407,o),
(204,438,cs),
(246,480,l),
(384,480,o),
(474,421,o),
(474,300,cs),
(474,248,o),
(435,193,o),
(404,162,cs),
(362,120,l)
);
}
);
};
guides = (
{
angle = -40;
pos = (460,177);
}
);
layerId = "101235D7-D7A0-4302-9889-D8F0F8C6DD52";
name = W41;
shapes = (
{
closed = 1;
nodes = (
(48,82,o),
(128,-8,o),
(340,-8,c),
(460,113,l),
(460,177,l),
(453,183,l),
(438,164,o),
(414,139,o),
(392,120,c),
(231,120,o),
(134,179,o),
(134,260,cs),
(134,352,o),
(173,407,o),
(204,438,cs),
(246,480,l),
(352,480,o),
(429,455,o),
(460,412,c),
(460,592,l),
(412,604,o),
(356,608,o),
(310,608,c),
(181,480,ls),
(101,400,o),
(48,289,o),
(48,193,cs)
);
},
{
closed = 1;
nodes = (
(436,361,l),
(460,361,l),
(460,564,l),
(354,564,l)
);
}
);
width = 500;
}
);
unicode = 99;
},
{
color = 4;
glyphname = d;
lastChange = "2022-10-19 10:33:37 +0000";
layers = (
{
layerId = m01;
shapes = (
{
closed = 1;
nodes = (
(545,601,l),
(464,601,l),
(464,200,l),
(464,154,l),
(464,0,l),
(545,0,l),
(610,0,l),
(595,85,l),
(545,160,l)
);
},
{
closed = 1;
nodes = (
(545,601,l),
(545,860,l),
(464,860,l),
(399,860,l),
(414,775,l),
(464,700,l),
(464,601,l)
);
},
{
closed = 1;
nodes = (
(511,474,l),
(462,556,o),
(380,608,o),
(268,608,c),
(178,518,ls),
(91,431,o),
(45,326,o),
(45,232,cs),
(45,100,o),
(152,-8,o),
(342,-8,c),
(432,82,ls),
(464,114,o),
(491,149,o),
(511,184,c)
);
},
{
closed = 1;
nodes = (
(486,229,o),
(443,168,o),
(409,134,cs),
(391,116,l),
(239,116,o),
(124,181,o),
(124,314,cs),
(124,371,o),
(167,432,o),
(201,466,cs),
(219,484,l),
(371,484,o),
(486,419,o),
(486,286,cs)
);
}
);
width = 658;
}
);
metricLeft = "=o";
metricRight = "=n";
unicode = 100;
},
{
color = 9;
glyphname = eth;
lastChange = "2022-10-19 10:39:05 +0000";
layers = (
{
guides = (
{
angle = 44.8913;
pos = (419,876);
}
);
layerId = m01;
shapes = (
{
closed = 1;
nodes = (
(209,606,l),
(443,839,l),
(407,876,l),
(173,643,l)
);
},
{
closed = 1;
nodes = (
(565,368,l),
(565,669,o),
(423,868,o),
(209,868,c),
(151,738,l),
(346,738,o),
(473,642,o),
(473,444,c),
(480,352,l)
);
},
{
closed = 1;
nodes = (
(565,368,l),
(565,500,o),
(459,608,o),
(268,608,c),
(178,518,ls),
(91,431,o),
(45,326,o),
(45,232,cs),
(45,100,o),
(152,-8,o),
(342,-8,c),
(432,82,ls),
(519,169,o),
(565,274,o),
(565,368,c),
(486,286,l),
(486,229,o),
(443,168,o),
(409,134,cs),
(391,116,l),
(239,116,o),
(124,181,o),
(124,314,cs),
(124,371,o),
(167,432,o),
(201,466,cs),
(219,484,l),
(371,484,o),
(486,419,o),
(486,286,c)
);
}
);
width = 625;
}
);
metricLeft = "=o";
unicode = 240;
},
{
color = 4;
glyphname = e;
lastChange = "2022-10-19 10:41:39 +0000";
layers = (
{
background = {
shapes = (
{
closed = 1;
nodes = (
(537,406,l),
(511,555,o),
(367,608,o),
(262,608,c),
(133,480,ls),
(66,413,o),
(50,313,o),
(50,214,cs),
(50,65,o),
(207,-8,o),
(332,-8,c),
(461,120,l),
(426,162,l),
(384,120,l),
(191,120,o),
(117,169,o),
(117,284,cs),
(117,346,o),
(128,410,o),
(156,438,cs),
(198,480,l),
(336,480,o),
(436,421,o),
(457,300,c)
);
},
{
closed = 1;
nodes = (
(187,300,l),
(457,300,l),
(457,360,l),
(247,360,l)
);
}
);
};
guides = (
{
angle = 224.7771;
pos = (207,300);
}
);
layerId = m01;
shapes = (
{
closed = 1;
nodes = (
(90,301,l),
(460,301,l),
(460,361,l),
(90,361,l)
);
},
{
closed = 1;
nodes = (
(85,430,o),
(50,306,o),
(50,202,cs),
(50,42,o),
(164,-8,o),
(297,-8,cs),
(341,-8,o),
(379,-5,o),
(393,0,c),
(506,124,l),
(492,119,o),
(454,112,o),
(410,112,cs),
(251,112,o),
(129,126,o),
(129,284,cs),
(129,352,o),
(161,431,o),
(214,484,c),
(354,484,o),
(460,424,o),
(460,301,c),
(539,383,l),
(539,507,o),
(440,608,o),
(263,608,c),
(173,518,ls)
);
}
);
width = 584;
},
{
associatedMasterId = m01;
background = {
shapes = (
{
closed = 1;
nodes = (
(537,406,l),
(511,555,o),
(367,608,o),
(262,608,c),
(133,480,ls),
(66,413,o),
(50,313,o),
(50,214,cs),
(50,65,o),
(207,-8,o),
(332,-8,c),
(461,120,l),
(426,162,l),
(384,120,l),
(191,120,o),
(117,169,o),
(117,284,cs),
(117,346,o),
(128,410,o),
(156,438,cs),
(198,480,l),
(336,480,o),
(436,421,o),
(457,300,c)
);
},
{
closed = 1;
nodes = (
(187,300,l),
(457,300,l),
(457,360,l),
(247,360,l)
);
}
);
};
guides = (
{
angle = 224.7771;
pos = (347,273);
}
);
layerId = "327D4E82-6951-4160-8299-693A2E9FC7F4";
name = W41;
shapes = (
{
closed = 1;
nodes = (
(537,406,l),
(511,555,o),
(367,608,o),
(262,608,c),
(133,480,ls),
(66,413,o),
(50,313,o),
(50,214,cs),
(50,65,o),
(207,-8,o),
(332,-8,c),
(461,120,l),
(426,162,l),
(384,120,l),
(191,120,o),
(117,169,o),
(117,284,cs),
(117,346,o),
(128,410,o),
(156,438,cs),
(198,480,l),
(336,480,o),
(436,421,o),
(457,300,c)
);
},
{
closed = 1;
nodes = (
(187,300,l),
(457,300,l),
(457,360,l),
(247,360,l)
);
}
);
width = 572;
}
);
metricLeft = "=c";
unicode = 101;
},
{
glyphname = f;
lastChange = "2022-10-19 16:06:24 +0000";
layers = (
{
guides = (
{
pos = (123,570);
}
);
layerId = m01;
shapes = (
{
closed = 1;
nodes = (
(409,861,l),
(384,865,o),
(356,868,o),
(327,868,c),
(237,778,ls),
(174,715,o),
(123,641,o),
(123,570,c),
(183,570,l),
(183,571,o),
(183,573,o),
(183,574,cs),
(183,631,o),
(226,692,o),
(260,726,cs),
(278,744,l),
(326,744,o),
(371,737,o),
(409,724,c)
);
},
{
closed = 1;
nodes = (
(123,570,l),
(123,160,l),
(73,85,l),
(58,0,l),
(268,0,l),
(253,85,l),
(203,160,l),
(203,440,l),
(203,650,l)
);
},
{
closed = 1;
nodes = (
(58,460,l),
(298,460,l),
(328,600,l),
(88,600,l)
);
}
);
width = 409;
}
);
metricLeft = "=n";
unicode = 102;
},
{
color = 4;
glyphname = g;
lastChange = "2022-10-19 10:40:23 +0000";
layers = (
{
guides = (
{
angle = 225;
pos = (157,-79);
},
{
angle = 90;
pos = (46,232);
}
);
layerId = m01;
shapes = (
{
closed = 1;
nodes = (
(555,600,l),
(484,600,l),
(484,500,l),
(474,450,l),
(474,200,l),
(474,44,l),
(555,126,l),
(555,160,l)
);
},
{
closed = 1;
nodes = (
(519,504,l),
(471,567,o),
(386,608,o),
(268,608,c),
(178,518,ls),
(91,431,o),
(45,326,o),
(45,232,cs),
(45,100,o),
(152,-8,o),
(342,-8,c),
(432,82,ls),
(468,118,o),
(498,158,o),
(519,199,c)
);
},
{
closed = 1;
nodes = (
(486,229,o),
(443,168,o),
(409,134,cs),
(391,116,l),
(239,116,o),
(124,181,o),
(124,314,cs),
(124,371,o),
(167,432,o),
(201,466,cs),
(219,484,l),
(371,484,o),
(486,419,o),
(486,286,cs)
);
},
{
closed = 1;
nodes = (
(55,-161,l),
(102,-226,o),
(189,-270,o),
(310,-270,c),
(420,-160,ls),
(507,-73,o),
(555,32,o),
(555,126,c),
(474,44,l),
(474,-13,o),
(430,-75,o),
(397,-108,cs),
(359,-146,l),
(253,-146,o),
(163,-125,o),
(108,-82,c)
);
}
);
width = 625;
}
);
metricLeft = "=o";
unicode = 103;
},
{
color = 9;
glyphname = h;
lastChange = "2022-10-19 09:59:55 +0000";
layers = (
{
layerId = m01;
shapes = (
{
closed = 1;
nodes = (
(58,860,l),
(73,775,l),
(123,700,l),
(123,160,l),
(73,85,l),
(58,0,l),
(268,0,l),
(253,85,l),
(203,160,l),
(203,860,l)
);
},
{
closed = 1;
nodes = (
(134,334,l),
(284,484,l),
(417,484,o),
(518,419,o),
(518,286,c),
(557,478,l),
(557,573,o),
(446,608,o),
(333,608,c),
(163,438,l)
);
},
{
closed = 1;
nodes = (
(477,418,l),
(477,160,l),
(427,85,l),
(412,0,l),
(622,0,l),
(607,85,l),
(557,160,l),
(557,478,l)
);
}
);
width = 670;
}
);
metricLeft = n;
metricRight = n;
unicode = 104;
},
{
glyphname = idotless;
lastChange = "2022-10-19 09:59:55 +0000";
layers = (
{
anchors = (
{
name = bottom;
pos = (163,0);
},
{
name = ogonek;
pos = (277,10);
},
{
name = top;
pos = (163,600);
}
);
layerId = m01;
shapes = (
{
closed = 1;
nodes = (
(123,160,l),
(73,85,l),
(58,0,l),
(268,0,l),
(253,85,l),
(203,160,l),
(203,612,l),
(155,604,o),
(106,600,o),
(58,600,c),
(58,505,l),
(123,440,l)
);
}
);
width = 316;
}
);
metricLeft = n;
metricRight = n;
unicode = 305;
},
{
glyphname = k;
lastChange = "2022-10-19 18:44:57 +0000";
layers = (
{
guides = (
{
angle = 225;
pos = (302,442);
}
);
layerId = m01;
shapes = (
{
closed = 1;
nodes = (
(460,600,l),
(184,324,l),
(204,268,l),
(537,600,l)
);
},
{
closed = 1;
nodes = (
(268,0,l),
(253,85,l),
(203,160,l),
(203,860,l),
(58,860,l),
(73,775,l),
(123,700,l),
(123,160,l),
(73,85,l),
(58,0,l)
);
},
{
closed = 1;
nodes = (
(242,338,l),
(290,216,o),
(356,99,o),
(460,-2,c),
(591,0,l),
(455,133,o),
(386,250,o),
(324,418,c)
);
}
);
width = 620;
}
);
metricLeft = "=h";
unicode = 107;
},
{
glyphname = l;
lastChange = "2022-10-19 18:34:31 +0000";
layers = (
{
layerId = m01;
shapes = (
{
closed = 1;
nodes = (
(103,0,l),
(248,0,l),
(233,85,l),
(183,160,l),
(183,860,l),
(38,860,l),
(53,775,l),
(103,700,l)
);
}
);
width = 296;
}
);
metricLeft = "=h-20";
metricRight = "=n";
unicode = 108;
},
{
color = 4;
glyphname = n;
lastChange = "2022-10-19 09:59:16 +0000";
layers = (
{
background = {
shapes = (
{
closed = 1;
nodes = (
(640,368,l),
(640,500,o),
(534,608,o),
(343,608,c),
(253,518,ls),
(166,431,o),
(120,326,o),
(120,232,cs),
(120,100,o),
(227,-8,o),
(417,-8,c),
(507,82,ls),
(594,169,o),
(640,274,o),
(640,368,c),
(561,286,l),
(561,229,o),
(518,168,o),
(484,134,cs),
(466,116,l),
(314,116,o),
(199,181,o),
(199,314,cs),
(199,371,o),
(242,432,o),
(276,466,cs),
(294,484,l),
(446,484,o),
(561,419,o),
(561,286,c)
);
}
);
};
guides = (
{
angle = 225;
pos = (298,563);
}
);
layerId = m01;
shapes = (
{
closed = 1;
nodes = (
(58,600,l),
(73,515,l),
(123,440,l),
(123,160,l),
(73,85,l),
(58,0,l),
(268,0,l),
(253,85,l),
(203,160,l),
(203,440,l),
(203,600,l)
);
},
{
closed = 1;
nodes = (
(134,334,l),
(284,484,l),
(417,484,o),
(518,419,o),
(518,286,c),
(557,478,l),
(557,573,o),
(446,608,o),
(333,608,c),
(163,438,l)
);
},
{
closed = 1;
nodes = (
(477,418,l),
(477,160,l),
(427,85,l),
(412,0,l),
(622,0,l),
(607,85,l),
(557,160,l),
(557,478,l)
);
}
);
width = 670;
},
{
associatedMasterId = m01;
guides = (
{
angle = 70;
pos = (406,424);
}
);
layerId = "CB9E77A9-3B24-4CB9-BC3E-855F613B9BF0";
name = W41;
shapes = (
{
closed = 1;
nodes = (
(457,160,l),
(407,100,l),
(392,0,l),
(602,0,l),
(587,100,l),
(537,160,l),
(537,449,ls),
(537,552,o),
(470,608,o),
(402,608,cs),
(365,608,o),
(301,579,o),
(223,507,cs),
(150,439,l),
(150,404,l),
(191,445,o),
(310,478,o),
(371,478,cs),
(446,478,o),
(457,424,o),
(457,343,cs)
);
},
{
closed = 1;
nodes = (
(38,600,l),
(53,515,l),
(103,440,l),
(103,160,l),
(53,85,l),
(38,0,l),
(248,0,l),
(233,85,l),
(183,160,l),
(183,440,l),
(178,440,l),
(154,490,o),
(146,538,o),
(138,600,c)
);
}
);
width = 640;
}
);
unicode = 110;
},
{
color = 4;
glyphname = o;
lastChange = "2022-10-19 09:53:32 +0000";
layers = (
{
layerId = m01;
shapes = (
{
closed = 1;
nodes = (
(565,368,l),
(565,500,o),
(459,608,o),
(268,608,c),
(178,518,ls),
(91,431,o),
(45,326,o),
(45,232,cs),
(45,100,o),
(152,-8,o),
(342,-8,c),
(432,82,ls),
(519,169,o),
(565,274,o),
(565,368,c),
(486,286,l),
(486,229,o),
(443,168,o),
(409,134,cs),
(391,116,l),
(239,116,o),
(124,181,o),
(124,314,cs),
(124,371,o),
(167,432,o),
(201,466,cs),
(219,484,l),
(371,484,o),
(486,419,o),
(486,286,c)
);
}
);
width = 610;
},
{
associatedMasterId = m01;
layerId = "7EAB4262-A99B-4E49-B340-E5DF4F065C4D";
name = aa01;
shapes = (
{
closed = 1;
nodes = (
(208,127,o),
(162,213,o),
(162,309,cs),
(162,352,o),
(171,397,o),
(186,438,c),
(224,480,l),
(256,478,o),
(283,472,o),
(305,462,cs),
(375,431,o),
(402,364,o),
(402,291,cs),
(402,248,o),
(393,203,o),
(378,162,c),
(340,120,l)
);
},
{
closed = 1;
nodes = (
(472,274,l),
(454,282,l),
(378,162,l),
(396,154,l)
);
},
{
closed = 1;
nodes = (
(389,120,ls),
(450,193,o),
(500,308,o),
(500,406,cs),
(500,479,o),
(474,546,o),
(403,574,cs),
(363,590,ls),
(341,599,o),
(314,606,o),
(282,608,c),
(175,480,ls),
(114,407,o),
(64,292,o),
(64,194,cs),
(64,121,o),
(90,54,o),
(161,26,cs),
(201,10,ls),
(223,1,o),
(250,-6,o),
(282,-8,c)
);
}
);
width = 560;
},
{
associatedMasterId = m01;
layerId = "6879EEE2-D659-41C4-A876-E2F77388240B";
name = aa02;
shapes = (
{
closed = 1;
nodes = (
(439,120,ls),
(512,193,o),
(572,308,o),
(572,406,cs),
(572,555,o),
(415,608,o),
(310,608,c),
(181,480,ls),
(108,407,o),
(48,292,o),
(48,194,cs),
(48,45,o),
(205,-8,o),
(310,-8,c)
);
},
{
closed = 1;
nodes = (
(224,120,o),
(134,179,o),
(134,300,cs),
(134,352,o),
(173,407,o),
(204,438,cs),
(246,480,l),
(384,480,o),
(474,421,o),
(474,300,cs),
(474,248,o),
(435,193,o),
(404,162,cs),
(362,120,l)
);
}
);
width = 620;
},
{
associatedMasterId = m01;
layerId = "9BA2D978-BFD7-4F9D-95C1-1BBE03B3E267";
name = aa03;
shapes = (
{
closed = 1;
nodes = (
(437,82,ls),
(524,169,o),
(570,274,o),
(570,368,cs),
(570,500,o),
(464,608,o),
(273,608,c),
(183,518,ls),
(96,431,o),
(50,326,o),
(50,232,cs),
(50,100,o),
(157,-8,o),
(347,-8,c)
);
},
{
closed = 1;
nodes = (
(244,116,o),
(129,181,o),
(129,314,cs),
(129,371,o),
(172,432,o),
(206,466,cs),
(224,484,l),
(376,484,o),
(491,419,o),
(491,286,cs),
(491,229,o),
(448,168,o),
(414,134,cs),
(396,116,l)
);
}
);
width = 620;
}
);
unicode = 111;
},
{
color = 9;
glyphname = r;
lastChange = "2022-10-19 10:53:05 +0000";
layers = (
{
background = {
shapes = (
{
closed = 1;
nodes = (
(590,368,l),
(590,500,o),
(484,608,o),
(293,608,c),
(203,518,ls),
(116,431,o),
(70,326,o),
(70,232,cs),
(70,100,o),
(177,-8,o),
(367,-8,c),
(457,82,ls),
(544,169,o),
(590,274,o),
(590,368,c),
(511,286,l),
(511,229,o),
(468,168,o),
(434,134,cs),
(416,116,l),
(264,116,o),
(149,181,o),
(149,314,cs),
(149,371,o),
(192,432,o),
(226,466,cs),
(244,484,l),
(396,484,o),
(511,419,o),
(511,286,c)
);
}
);
};
layerId = m01;
shapes = (
{
closed = 1;
nodes = (
(459,577,l),
(417,596,o),
(369,608,o),
(340,608,c),
(170,438,l),
(138,338,l),
(283,483,l),
(328,483,o),
(424,462,o),
(459,404,c)
);
},
{
closed = 1;
nodes = (
(123,160,l),
(73,85,l),
(58,0,l),
(268,0,l),
(253,85,l),
(203,160,l),
(203,600,l),
(58,600,l),
(73,515,l),
(123,440,l)
);
}
);
width = 460;
},
{
associatedMasterId = m01;
background = {
shapes = (
{
closed = 1;
nodes = (
(457,160,l),
(407,100,l),
(392,0,l),
(602,0,l),
(587,100,l),
(537,160,l),
(537,449,ls),
(537,552,o),
(470,608,o),
(402,608,cs),
(365,608,o),
(301,579,o),
(223,507,cs),
(150,439,l),
(150,404,l),
(191,445,o),
(310,478,o),
(371,478,cs),
(446,478,o),
(457,424,o),
(457,343,cs)
);
},
{
closed = 1;
nodes = (
(38,600,l),
(53,515,l),
(103,440,l),
(103,160,l),
(53,85,l),
(38,0,l),
(248,0,l),
(233,85,l),
(183,160,l),
(183,440,l),
(178,440,l),
(154,490,o),
(146,538,o),
(138,600,c)
);
}
);
};
guides = (
{
angle = 63.435;
pos = (469,505);
},
{
angle = 112.1094;
pos = (433,361);
}
);
layerId = "4522FEB3-CD95-4848-9604-99C73E06924C";
name = W41;
shapes = (
{
closed = 1;
nodes = (
(439,600,l),
(427,605,o),
(414,608,o),
(402,608,cs),
(372,608,o),
(315,593,o),
(227,495,cs),
(150,409,l),
(150,374,l),
(191,432,o),
(310,478,o),
(371,478,cs),
(406,478,o),
(427,466,o),
(439,446,c)
);
},
{
closed = 1;
nodes = (
(103,160,l),
(53,85,l),
(38,0,l),
(248,0,l),
(233,85,l),
(183,160,l),
(183,600,l),
(38,600,l),
(53,515,l),
(103,440,l)
);
},
{
closed = 1;
nodes = (
(439,361,l),
(439,564,l),
(333,564,l),
(415,361,l)
);
}
);
width = 455;
}
);
metricLeft = n;
unicode = 114;
},
{
color = 4;
glyphname = s;
lastChange = "2022-10-19 10:54:27 +0000";
layers = (
{
guides = (
{
pos = (445,545);
},
{
angle = 90;
pos = (425,469);
},
{
pos = (45,65);
}
);
layerId = m01;
shapes = (
{
closed = 1;
nodes = (
(445,367,o),
(137,312,o),
(137,453,c),
(137,465,l),
(104,406,l),
(178,480,l),
(285,480,o),
(368,462,o),
(415,423,c),
(415,561,l),
(362,594,o),
(295,608,o),
(242,608,c),
(113,480,ls),
(102,469,o),
(82,446,o),
(71,431,c),
(71,267,o),
(376,312,o),
(376,196,cs),
(376,178,o),
(366,163,o),
(344,143,cs),
(319,120,l),
(227,120,o),
(158,138,o),
(106,154,c),
(45,65,l),
(101,13,o),
(191,-8,o),
(267,-8,c),
(397,120,ls),
(420,143,o),
(445,164,o),
(445,199,cs)
);
},
{
closed = 1;
nodes = (
(45,248,l),
(45,65,l),
(143,65,l),
(69,248,l)
);
}
);
width = 485;
}
);
unicode = 115;
},
{
glyphname = t;
lastChange = "2022-10-19 15:55:19 +0000";
layers = (
{
guides = (
{
angle = 270;
pos = (128,351);
},
{
angle = 26;
pos = (128,640);
}
);
layerId = m01;
shapes = (
{
closed = 1;
nodes = (
(365,465,l),
(365,600,l),
(208,600,l),
(208,679,l),
(128,640,l),
(128,600,l),
(88,600,l),
(23,465,l)
);
},
{
closed = 1;
nodes = (
(512,126,l),
(492,118,o),
(465,112,o),
(428,112,cs),
(268,112,o),
(208,155,o),
(208,284,cs),
(208,500,l),
(128,500,l),
(128,202,ls),
(128,55,o),
(190,-8,o),
(315,-8,cs),
(379,-8,o),
(416,4,o),
(431,20,cs),
(520,118,l)
);
}
);
width = 535;
}
);
unicode = 116;
},
{
color = 9;
glyphname = u;
lastChange = "2022-10-19 10:55:31 +0000";
layers = (
{
background = {
shapes = (
{
closed = 1;
nodes = (
(193,440,l),
(193,500,l),
(193,610,l),
(145,602,o),
(96,600,o),
(48,600,c),
(63,480,l),
(113,420,l),
(113,151,ls),
(113,48,o),
(176,-8,o),
(241,-8,cs),
(276,-8,o),
(336,21,o),
(410,93,cs),
(479,161,l),
(479,196,l),
(441,155,o),
(330,122,o),
(273,122,cs),
(203,122,o),
(193,176,o),
(193,257,cs)
);
},
{
closed = 1;
nodes = (
(612,0,l),
(597,85,l),
(547,160,l),
(547,440,l),
(547,515,l),
(547,610,l),
(499,602,o),
(450,600,o),
(402,600,c),
(417,495,l),
(467,420,l),
(467,160,l),
(467,0,l)
);
}
);
};
layerId = m01;
shapes = (
{
closed = 1;
nodes = (
(536,274,l),
(386,124,l),
(253,124,o),
(152,189,o),
(152,322,c),
(113,130,l),
(113,35,o),
(224,0,o),
(337,0,c),
(507,170,l)
);
},
{
closed = 1;
nodes = (
(467,8,l),
(612,8,l),
(597,93,l),
(547,168,l),
(547,610,l),
(499,602,o),
(450,600,o),
(402,600,c),
(417,515,l),
(467,440,l)
);
},
{
closed = 1;
nodes = (
(113,130,l),
(193,190,l),
(193,610,l),
(145,602,o),
(96,600,o),
(48,600,c),
(63,515,l),
(113,440,l)
);
}
);
width = 660;
}
);
metricLeft = "=|n";
metricRight = "=d";
unicode = 117;
},
{
color = 4;
glyphname = v;
lastChange = "2022-10-18 20:21:08 +0000";
layers = (
{
anchors = (
{
name = bottom;
pos = (285,0);
},
{
name = top;
pos = (285,600);
}
);
background = {
shapes = (
{
closed = 1;
nodes = (
(536,368,l),
(536,500,o),
(430,608,o),
(239,608,c),
(149,518,ls),
(62,431,o),
(16,326,o),
(16,232,cs),
(16,100,o),
(123,-8,o),
(313,-8,c),
(403,82,ls),
(490,169,o),
(536,274,o),
(536,368,c),
(457,286,l),
(457,229,o),
(414,168,o),
(380,134,cs),
(362,116,l),
(210,116,o),
(95,181,o),
(95,314,cs),
(95,371,o),
(138,432,o),
(172,466,cs),
(190,484,l),
(342,484,o),
(457,419,o),
(457,286,c)
);
}
);
};
guides = (
{
angle = -71.4319;
pos = (131,600);
}
);
layerId = m01;
shapes = (
{
closed = 1;
nodes = (
(297,-8,l),
(357,54,o),
(391,125,o),
(414,193,cs),
(549,600,l),
(479,600,l),
(335,145,ls),
(317,89,o),
(290,58,o),
(268,38,cs),
(228,1,l)
);
},
{
closed = 1;
nodes = (
(329,119,l),
(309,119,o),
(286,123,o),
(274,131,c),
(289,93,l),
(240,282,o),
(188,431,o),
(131,600,c),
(20,600,l),
(228,1,l),
(251,-3,o),
(276,-6,o),
(297,-8,c)
);
},
{
closed = 1;
nodes = (
(221,515,l),
(236,600,l),
(10,600,l),
(25,515,l),
(75,440,l),
(171,440,l)
);
},
{
closed = 1;
nodes = (
(546,515,l),
(561,600,l),
(373,600,l),
(388,515,l),
(438,440,l),
(496,440,l)
);
}
);
width = 570;
}
);
unicode = 118;
},
{
glyphname = w;
lastChange = "2022-10-19 18:25:48 +0000";
layers = (
{
guides = (
{
pos = (513,503);
}
);
layerId = m01;
shapes = (
{
closed = 1;
nodes = (
(617,-8,l),
(677,54,o),
(711,125,o),
(734,193,cs),
(869,600,l),
(799,600,l),
(655,145,ls),
(637,89,o),
(610,58,o),
(588,38,cs),
(548,1,l)
);
},
{
closed = 1;
nodes = (
(649,119,l),
(629,119,o),
(606,123,o),
(594,131,c),
(609,93,l),
(570,245,o),
(541,371,o),
(502,503,c),
(419,409,l),
(548,1,l),
(571,-3,o),
(596,-6,o),
(617,-8,c)
);
},
{
closed = 1;
nodes = (
(866,515,l),
(881,600,l),
(693,600,l),
(708,515,l),
(758,440,l),
(816,440,l)
);
},
{
closed = 1;
nodes = (
(297,-8,l),
(357,54,o),
(394,124,o),
(414,193,cs),
(502,503,l),
(433,503,l),
(335,145,ls),
(318,84,o),
(290,58,o),
(268,38,cs),
(228,1,l)
);
},
{
closed = 1;
nodes = (
(329,119,l),
(309,119,o),
(286,123,o),
(274,131,c),
(289,93,l),
(240,282,o),
(188,431,o),
(131,600,c),
(20,600,l),
(228,1,l),
(251,-3,o),
(276,-6,o),
(297,-8,c)
);
},
{
closed = 1;
nodes = (
(221,515,l),
(236,600,l),
(10,600,l),
(25,515,l),
(75,440,l),
(171,440,l)
);
}
);
width = 890;
}
);
metricLeft = "=v";
metricRight = "=v";
unicode = 119;
},
{
glyphname = a.aa01;
lastChange = "2022-10-19 09:59:55 +0000";
layers = (
{
layerId = m01;
shapes = (
{
closed = 1;
nodes = (
(189,127,o),
(143,213,o),
(143,309,cs),
(143,352,o),
(152,397,o),
(167,438,c),
(205,480,l),
(237,478,o),
(264,472,o),
(286,462,cs),
(356,431,o),
(383,364,o),
(383,291,cs),
(383,248,o),
(374,203,o),
(359,162,c),
(321,120,l)
);
},
{
closed = 1;
nodes = (
(421,523,l),
(354,580,o),
(316,606,o),
(263,608,c),
(156,480,ls),
(95,407,o),
(45,292,o),
(45,194,cs),
(45,121,o),
(71,54,o),
(142,26,cs),
(182,10,ls),
(204,1,o),
(231,-6,o),
(263,-8,c),
(370,120,ls),
(388,142,o),
(406,168,o),
(421,196,c)
);
},
{
closed = 1;
nodes = (
(464,600,l),
(393,600,l),
(393,500,l),
(383,450,l),
(383,200,l),
(383,0,l),
(464,0,l),
(529,0,l),
(514,85,l),
(464,160,l)
);
}
);
width = 577;
}
);
metricLeft = o;
metricRight = "=n";
},
{
glyphname = o.aa01;
lastChange = "2022-10-10 09:52:58 +0000";
layers = (
{
guides = (
{
angle = 70;
pos = (371,424);
},
{
angle = 48.4474;
pos = (205,459);
},
{
pos = (340,120);
}
);
layerId = m01;
shapes = (
{
closed = 1;
nodes = (
(208,127,o),
(162,213,o),
(162,309,cs),
(162,352,o),
(171,397,o),
(186,438,c),
(224,480,l),
(256,478,o),
(283,472,o),
(305,462,cs),
(375,431,o),
(402,364,o),
(402,291,cs),
(402,248,o),
(393,203,o),
(378,162,c),
(340,120,l)
);
},
{
closed = 1;
nodes = (
(472,274,l),
(454,282,l),
(378,162,l),
(396,154,l)
);
},
{
closed = 1;
nodes = (
(389,120,ls),
(450,193,o),
(500,308,o),
(500,406,cs),
(500,479,o),
(474,546,o),
(403,574,cs),
(363,590,ls),
(341,599,o),
(314,606,o),
(282,608,c),
(175,480,ls),
(114,407,o),
(64,292,o),
(64,194,cs),
(64,121,o),
(90,54,o),
(161,26,cs),
(201,10,ls),
(223,1,o),
(250,-6,o),
(282,-8,c)
);
}
);
width = 560;
}
);
},
{
glyphname = r.aa01;
lastChange = "2022-10-19 09:59:55 +0000";
layers = (
{
guides = (
{
angle = 63.435;
pos = (489,505);
}
);
layerId = m01;
shapes = (
{
closed = 1;
nodes = (
(518,564,l),
(492,593,o),
(457,608,o),
(422,608,cs),
(385,608,o),
(321,579,o),
(243,507,cs),
(170,439,l),
(170,404,l),
(211,445,o),
(330,478,o),
(391,478,cs),
(426,478,o),
(447,466,o),
(459,446,c)
);
},
{
closed = 1;
nodes = (
(459,446,l),
(459,564,l),
(417,564,l),
(417,361,l)
);
},
{
closed = 1;
nodes = (
(123,160,l),
(73,85,l),
(58,0,l),
(268,0,l),
(253,85,l),
(203,160,l),
(203,600,l),
(58,600,l),
(73,515,l),
(123,440,l)
);
}
);
width = 535;
}
);
metricLeft = n;
},
{
glyphname = a.aa02;
lastChange = "2022-10-10 09:52:50 +0000";
layers = (
{
layerId = m01;
shapes = (
{
closed = 1;
nodes = (
(522,464,l),
(466,588,o),
(384,608,o),
(320,608,c),
(191,480,ls),
(118,407,o),
(58,292,o),
(58,194,cs),
(58,45,o),
(215,-8,o),
(320,-8,c),
(449,120,ls),
(476,147,o),
(501,179,o),
(522,214,c)
);
},
{
closed = 1;
nodes = (
(234,120,o),
(144,179,o),
(144,300,cs),
(144,352,o),
(183,407,o),
(214,438,cs),
(256,480,l),
(394,480,o),
(484,421,o),
(484,300,cs),
(484,248,o),
(445,193,o),
(414,162,cs),
(372,120,l)
);
},
{
closed = 1;
nodes = (
(558,600,l),
(487,600,l),
(487,500,l),
(477,450,l),
(477,200,l),
(477,0,l),
(558,0,l),
(623,0,l),
(608,85,l),
(558,160,l)
);
}
);
width = 660;
}
);
},
{
glyphname = b.aa02;
lastChange = "2022-10-19 09:55:07 +0000";
layers = (
{
layerId = m01;
shapes = (
{
closed = 1;
nodes = (
(181,601,l),
(181,860,l),
(100,860,l),
(35,860,l),
(50,775,l),
(100,700,l),
(100,601,l)
);
},
{
closed = 1;
nodes = (
(101,601,l),
(101,160,l),
(51,85,l),
(36,0,l),
(151,0,l),
(171,85,l),
(181,160,l),
(181,601,l)
);
},
{
closed = 1;
nodes = (
(143,92,l),
(199,22,o),
(283,-8,o),
(348,-8,c),
(477,120,ls),
(550,193,o),
(610,308,o),
(610,406,c),
(512,300,l),
(512,248,o),
(473,193,o),
(442,162,cs),
(400,120,l),
(262,120,o),
(172,179,o),
(172,300,cs),
(172,352,o),
(211,407,o),
(242,438,cs),
(284,480,l),
(422,480,o),
(512,421,o),
(512,300,c),
(610,406,l),
(610,555,o),
(453,608,o),
(348,608,c),
(219,480,ls),
(191,452,o),
(165,418,o),
(143,381,c)
);
}
);
width = 657;
}
);
metricRight = "=o+2";
},
{
glyphname = d.aa02;
lastChange = "2022-10-19 09:55:07 +0000";
layers = (
{
layerId = m01;
shapes = (
{
closed = 1;
nodes = (
(509,454,l),
(453,578,o),
(371,608,o),
(307,608,c),
(178,480,ls),
(105,407,o),
(45,292,o),
(45,194,cs),
(45,45,o),
(202,-8,o),
(307,-8,c),
(436,120,ls),
(463,147,o),
(488,179,o),
(509,214,c)
);
},
{
closed = 1;
nodes = (
(221,120,o),
(131,179,o),
(131,300,cs),
(131,352,o),
(170,407,o),
(201,438,cs),
(243,480,l),
(381,480,o),
(471,441,o),
(471,300,cs),
(471,248,o),
(432,193,o),
(401,162,cs),
(359,120,l)
);
},
{
closed = 1;
nodes = (
(545,601,l),
(464,601,l),
(464,200,l),
(464,0,l),
(545,0,l),
(610,0,l),
(595,85,l),
(545,160,l)
);
},
{
closed = 1;
nodes = (
(545,601,l),
(545,860,l),
(464,860,l),
(399,860,l),
(414,775,l),
(464,700,l),
(464,601,l)
);
}
);
width = 647;
}
);
metricLeft = "=o";
},
{
glyphname = o.aa02;
lastChange = "2022-10-13 12:54:32 +0000";
layers = (
{
layerId = m01;
shapes = (
{
closed = 1;
nodes = (
(439,120,ls),
(512,193,o),
(572,308,o),
(572,406,cs),
(572,555,o),
(415,608,o),
(310,608,c),
(181,480,ls),
(108,407,o),
(48,292,o),
(48,194,cs),
(48,45,o),
(205,-8,o),
(310,-8,c)
);
},
{
closed = 1;
nodes = (
(224,120,o),
(134,179,o),
(134,300,cs),
(134,352,o),
(173,407,o),
(204,438,cs),
(246,480,l),
(384,480,o),
(474,421,o),
(474,300,cs),
(474,248,o),
(435,193,o),
(404,162,cs),
(362,120,l)
);
}
);
width = 620;
}
);
},
{
glyphname = s.aa02;
lastChange = "2022-10-13 12:27:57 +0000";
layers = (
{
layerId = m01;
shapes = (
{
closed = 1;
nodes = (
(162,312,o),
(162,453,c),
(162,465,l),
(129,406,l),
(203,480,l),
(289,480,o),
(356,457,o),
(394,411,c),
(480,529,l),
(425,586,o),
(335,608,o),
(267,608,c),
(138,480,ls),
(127,469,o),
(107,446,o),
(96,431,c),
(96,267,o),
(390,312,o),
(390,196,cs),
(390,178,o),
(379,164,o),
(358,143,cs),
(334,120,l),
(243,120,o),
(175,140,o),
(135,181,c),
(60,65,l),
(116,13,o),
(206,-8,o),
(282,-8,c),
(411,120,ls),
(434,143,o),
(459,164,o),
(459,199,cs),
(459,367,o)
);
}
);
width = 540;
},
{
associatedMasterId = m01;
layerId = "2A7EC000-BEB9-451D-8276-8CB6DF89FF0C";
name = "13 Oct 22, 13:27";
shapes = (
{
closed = 1;
nodes = (
(162,312,o),
(162,453,c),
(162,465,l),
(129,406,l),
(203,480,l),
(289,480,o),
(356,457,o),
(394,411,c),
(480,529,l),
(425,586,o),
(335,608,o),
(267,608,c),
(138,480,ls),
(127,469,o),
(107,446,o),
(96,431,c),
(96,267,o),
(390,312,o),
(390,196,cs),
(390,178,o),
(379,164,o),
(358,143,cs),
(334,120,l),
(243,120,o),
(175,140,o),
(135,181,c),
(60,65,l),
(116,13,o),
(206,-8,o),
(282,-8,c),
(411,120,ls),
(434,143,o),
(459,164,o),
(459,199,cs),
(459,367,o)
);
}
);
width = 540;
}
);
},
{
glyphname = a.aa03;
lastChange = "2022-10-19 09:55:07 +0000";
layers = (
{
layerId = m01;
shapes = (
{
closed = 1;
nodes = (
(554,600,l),
(483,600,l),
(483,500,l),
(473,450,l),
(473,200,l),
(473,0,l),
(554,0,l),
(619,0,l),
(604,85,l),
(554,160,l)
);
},
{
closed = 1;
nodes = (
(519,504,l),
(471,567,o),
(386,608,o),
(268,608,c),
(178,518,ls),
(91,431,o),
(45,326,o),
(45,232,cs),
(45,100,o),
(152,-8,o),
(342,-8,c),
(432,82,ls),
(468,118,o),
(498,158,o),
(519,199,c)
);
},
{
closed = 1;
nodes = (
(486,229,o),
(443,168,o),
(409,134,cs),
(391,116,l),
(239,116,o),
(124,181,o),
(124,314,cs),
(124,371,o),
(167,432,o),
(201,466,cs),
(219,484,l),
(371,484,o),
(486,419,o),
(486,286,cs)
);
}
);
width = 655;
}
);
metricLeft = "=o";
},
{
glyphname = o.aa03;
lastChange = "2022-10-13 12:32:57 +0000";
layers = (
{
guides = (
{
angle = 224.7771;
pos = (200,452);
}
);
layerId = m01;
shapes = (
{
closed = 1;
nodes = (
(437,82,ls),
(524,169,o),
(570,274,o),
(570,368,cs),
(570,500,o),
(464,608,o),
(273,608,c),
(183,518,ls),
(96,431,o),
(50,326,o),
(50,232,cs),
(50,100,o),
(157,-8,o),
(347,-8,c)
);
},
{
closed = 1;
nodes = (
(244,116,o),
(129,181,o),
(129,314,cs),
(129,371,o),
(172,432,o),
(206,466,cs),
(224,484,l),
(376,484,o),
(491,419,o),
(491,286,cs),
(491,229,o),
(448,168,o),
(414,134,cs),
(396,116,l)
);
}
);
width = 620;
},
{
associatedMasterId = m01;
guides = (
{
angle = 224.7771;
pos = (200,452);
}
);
layerId = "B223B2E2-B150-4472-8D3E-70B0A0874A0E";
name = "13 Oct 22, 13:29";
shapes = (
{
closed = 1;
nodes = (
(429,82,ls),
(517,168,o),
(562,274,o),
(562,368,cs),
(562,500,o),
(474,608,o),
(283,608,c),
(191,518,ls),
(103,432,o),
(58,326,o),
(58,232,cs),
(58,100,o),
(147,-8,o),
(337,-8,c)
);
},
{
closed = 1;
nodes = (
(236,116,o),
(137,181,o),
(137,314,cs),
(137,371,o),
(180,432,o),
(214,466,cs),
(232,484,l),
(384,484,o),
(483,419,o),
(483,286,cs),
(483,229,o),
(440,168,o),
(406,134,cs),
(388,116,l)
);
}
);
width = 620;
}
);
},
{
glyphname = o.004;
lastChange = "2022-10-10 10:39:46 +0000";
layers = (
{
background = {
shapes = (
{
closed = 1;
nodes = (
(152,321,o),
(166,414,o),
(190,484,c),
(131,457,l),
(97,529,l),
(84,445,o),
(80,332,o),
(80,151,cs),
(80,48,o),
(160,-8,o),
(228,-8,cs),
(265,-8,o),
(327,21,o),
(398,93,cs),
(457,153,o),
(467,179,o),
(471,224,cs),
(475,272,o),
(480,360,o),
(480,449,cs),
(480,552,o),
(399,608,o),
(331,608,cs),
(294,608,o),
(232,579,o),
(161,507,cs),
(94,439,l),
(97,404,l),
(134,445,o),
(250,478,o),
(311,478,cs),
(386,478,o),
(409,424,o),
(409,343,cs),
(409,270,o),
(401,200,o),
(391,126,c),
(422,168,l),
(371,142,o),
(295,122,o),
(248,122,cs),
(179,122,o),
(152,167,o),
(152,237,cs)
);
}
);
};
layerId = m01;
shapes = (
{
closed = 1;
nodes = (
(316,-27,o),
(445,88,o),
(488,252,cs),
(532,414,o),
(476,568,o),
(364,598,cs),
(251,628,o),
(126,523,o),
(83,360,cs),
(39,197,o),
(92,33,o),
(204,3,cs)
);
},
{
closed = 1;
nodes = (
(251,113,o),
(168,170,o),
(144,260,cs),
(120,351,o),
(163,441,o),
(240,462,cs),
(317,483,o),
(400,426,o),
(424,336,cs),
(448,245,o),
(405,155,o),
(328,134,cs)
);
}
);
width = 560;
}
);
},
{
glyphname = c.w41;
lastChange = "2022-10-15 11:07:42 +0000";
layers = (
{
background = {
shapes = (
{
closed = 1;
nodes = (
(439,120,ls),
(512,193,o),
(572,308,o),
(572,406,cs),
(572,555,o),
(415,608,o),
(310,608,c),
(181,480,ls),
(108,407,o),
(48,292,o),
(48,194,cs),
(48,45,o),
(205,-8,o),
(310,-8,c)
);
},
{
closed = 1;
nodes = (
(224,120,o),
(134,179,o),
(134,300,cs),
(134,352,o),
(173,407,o),
(204,438,cs),
(246,480,l),
(384,480,o),
(474,421,o),
(474,300,cs),
(474,248,o),
(435,193,o),
(404,162,cs),
(362,120,l)
);
}
);
};
guides = (
{
angle = -40;
pos = (460,177);
}
);
layerId = m01;
shapes = (
{
closed = 1;
nodes = (
(48,82,o),
(128,-8,o),
(340,-8,c),
(460,113,l),
(460,177,l),
(453,183,l),
(438,164,o),
(414,139,o),
(392,120,c),
(231,120,o),
(134,179,o),
(134,260,cs),
(134,352,o),
(173,407,o),
(204,438,cs),
(246,480,l),
(352,480,o),
(429,455,o),
(460,412,c),
(460,592,l),
(412,604,o),
(356,608,o),
(310,608,c),
(181,480,ls),
(101,400,o),
(48,289,o),
(48,193,cs)
);
},
{
closed = 1;
nodes = (
(436,361,l),
(460,361,l),
(460,564,l),
(354,564,l)
);
}
);
width = 500;
}
);
},
{
glyphname = h.w41;
lastChange = "2022-10-19 09:59:55 +0000";
layers = (
{
layerId = m01;
shapes = (
{
closed = 1;
nodes = (
(477,160,l),
(427,100,l),
(412,0,l),
(622,0,l),
(607,100,l),
(557,160,l),
(557,449,ls),
(557,552,o),
(490,608,o),
(422,608,cs),
(385,608,o),
(321,579,o),
(243,507,cs),
(170,439,l),
(170,404,l),
(211,445,o),
(330,478,o),
(391,478,cs),
(466,478,o),
(477,424,o),
(477,343,cs)
);
},
{
closed = 1;
nodes = (
(58,860,l),
(73,775,l),
(123,700,l),
(123,160,l),
(73,85,l),
(58,0,l),
(268,0,l),
(253,85,l),
(203,160,l),
(203,860,l)
);
}
);
width = 670;
}
);
metricLeft = n;
metricRight = n;
},
{
glyphname = i.w41;
lastChange = "2022-10-19 09:59:55 +0000";
layers = (
{
layerId = m01;
shapes = (
{
closed = 1;
nodes = (
(123,160,l),
(73,85,l),
(58,0,l),
(268,0,l),
(253,85,l),
(203,160,l),
(203,600,l),
(58,600,l),
(73,515,l),
(123,440,l)
);
},
{
closed = 1;
nodes = (
(228,813,o),
(212,855,o),
(179,866,cs),
(147,877,o),
(109,854,o),
(96,815,cs),
(82,777,o),
(98,735,o),
(131,724,cs),
(163,713,o),
(201,736,o),
(214,775,cs)
);
}
);
width = 316;
}
);
metricLeft = n;
metricRight = n;
},
{
glyphname = n.w41;
lastChange = "2022-10-15 15:20:57 +0000";
layers = (
{
guides = (
{
angle = 70;
pos = (406,424);
}
);
layerId = m01;
shapes = (
{
closed = 1;
nodes = (
(457,160,l),
(407,100,l),
(392,0,l),
(602,0,l),
(587,100,l),
(537,160,l),
(537,449,ls),
(537,552,o),
(470,608,o),
(402,608,cs),
(365,608,o),
(301,579,o),
(223,507,cs),
(150,439,l),
(150,404,l),
(191,445,o),
(310,478,o),
(371,478,cs),
(446,478,o),
(457,424,o),
(457,343,cs)
);
},
{
closed = 1;
nodes = (
(38,600,l),
(53,515,l),
(103,440,l),
(103,160,l),
(53,85,l),
(38,0,l),
(248,0,l),
(233,85,l),
(183,160,l),
(183,440,l),
(178,440,l),
(154,490,o),
(146,538,o),
(138,600,c)
);
}
);
width = 640;
}
);
},
{
glyphname = r.w41;
lastChange = "2022-10-19 09:59:55 +0000";
layers = (
{
background = {
shapes = (
{
closed = 1;
nodes = (
(477,160,l),
(427,100,l),
(412,0,l),
(622,0,l),
(607,100,l),
(557,160,l),
(557,449,ls),
(557,552,o),
(490,608,o),
(422,608,cs),
(385,608,o),
(321,579,o),
(243,507,cs),
(170,439,l),
(170,404,l),
(211,445,o),
(330,478,o),
(391,478,cs),
(466,478,o),
(477,424,o),
(477,343,cs)
);
},
{
closed = 1;
nodes = (
(58,600,l),
(73,515,l),
(123,440,l),
(123,160,l),
(73,85,l),
(58,0,l),
(268,0,l),
(253,85,l),
(203,160,l),
(203,440,l),
(198,440,l),
(174,490,o),
(166,538,o),
(158,600,c)
);
}
);
};
guides = (
{
angle = 63.435;
pos = (489,505);
},
{
angle = 112.1094;
pos = (453,361);
}
);
layerId = m01;
shapes = (
{
closed = 1;
nodes = (
(459,600,l),
(447,605,o),
(434,608,o),
(422,608,cs),
(392,608,o),
(335,593,o),
(247,495,cs),
(170,409,l),
(170,374,l),
(211,432,o),
(330,478,o),
(391,478,cs),
(426,478,o),
(447,466,o),
(459,446,c)
);
},
{
closed = 1;
nodes = (
(123,160,l),
(73,85,l),
(58,0,l),
(268,0,l),
(253,85,l),
(203,160,l),
(203,600,l),
(58,600,l),
(73,515,l),
(123,440,l)
);
},
{
closed = 1;
nodes = (
(459,361,l),
(459,564,l),
(353,564,l),
(435,361,l)
);
}
);
width = 475;
}
);
metricLeft = n;
},
{
glyphname = u.w41;
lastChange = "2022-10-15 15:50:21 +0000";
layers = (
{
layerId = m01;
shapes = (
{
closed = 1;
nodes = (
(178,440,l),
(178,500,l),
(178,610,l),
(130,602,o),
(81,600,o),
(33,600,c),
(48,480,l),
(98,420,l),
(98,151,ls),
(98,48,o),
(161,-8,o),
(226,-8,cs),
(261,-8,o),
(321,21,o),
(395,93,cs),
(464,161,l),
(464,196,l),
(426,155,o),
(315,122,o),
(258,122,cs),
(188,122,o),
(178,176,o),
(178,257,cs)
);
},
{
closed = 1;
nodes = (
(597,0,l),
(582,85,l),
(532,160,l),
(532,440,l),
(532,515,l),
(532,610,l),
(484,602,o),
(435,600,o),
(387,600,c),
(402,495,l),
(452,420,l),
(452,160,l),
(452,0,l)
);
}
);
width = 630;
}
);
},
{
export = 0;
glyphname = n.001;
lastChange = "2022-10-12 10:57:40 +0000";
layers = (
{
layerId = m01;
shapes = (
{
closed = 1;
nodes = (
(163,608,l),
(20,545,l),
(83,519,l),
(83,59,l),
(18,0,l),
(228,0,l),
(163,59,l)
);
},
{
closed = 1;
nodes = (
(517,449,l),
(351,608,l),
(130,455,l),
(130,418,l),
(312,508,l),
(437,343,l),
(437,59,l),
(372,0,l),
(582,0,l),
(517,59,l)
);
}
);
width = 600;
}
);
},
{
export = 0;
glyphname = n.002;
lastChange = "2022-10-12 10:57:40 +0000";
layers = (
{
layerId = m01;
shapes = (
{
closed = 1;
nodes = (
(163,600,l),
(18,600,l),
(83,540,l),
(83,60,l),
(18,0,l),
(228,0,l),
(163,60,l)
);
},
{
closed = 1;
nodes = (
(517,449,ls),
(517,552,o),
(450,608,o),
(382,608,cs),
(345,608,o),
(281,595,o),
(203,523,cs),
(130,455,l),
(130,418,l),
(171,468,o),
(290,508,o),
(351,508,c),
(426,508,o),
(437,442,o),
(437,343,cs),
(437,60,l),
(372,0,l),
(582,0,l),
(517,60,l)
);
}
);
width = 600;
}
);
},
{
export = 0;
glyphname = n.003;
lastChange = "2022-10-12 10:57:40 +0000";
layers = (
{
guides = (
{
angle = 124;
pos = (582,0);
},
{
angle = 100;
pos = (228,0);
}
);
layerId = m01;
shapes = (
{
closed = 1;
nodes = (
(163,600,l),
(18,600,l),
(83,540,l),
(83,199,l),
(43,139,l),
(18,0,l),
(228,0,l),
(203,139,l),
(163,199,l)
);
},
{
closed = 1;
nodes = (
(437,199,l),
(397,139,l),
(372,0,l),
(582,0,l),
(557,139,l),
(517,199,l),
(517,449,ls),
(517,552,o),
(450,608,o),
(382,608,cs),
(345,608,o),
(281,595,o),
(203,523,cs),
(130,455,l),
(130,418,l),
(171,468,o),
(290,508,o),
(351,508,cs),
(426,508,o),
(437,442,o),
(437,343,cs)
);
}
);
width = 600;
}
);
},
{
export = 0;
glyphname = n.004;
lastChange = "2022-10-12 10:57:40 +0000";
layers = (
{
guides = (
{
angle = 124;
pos = (582,0);
},
{
angle = 100;
pos = (228,0);
}
);
layerId = m01;
shapes = (
{
closed = 1;
nodes = (
(163,600,l),
(18,600,l),
(83,540,l),
(83,159,l),
(33,84,l),
(18,0,l),
(228,0,l),
(213,84,l),
(163,159,l)
);
},
{
closed = 1;
nodes = (
(437,159,l),
(387,99,l),
(372,0,l),
(582,0,l),
(567,99,l),
(517,159,l),
(517,449,ls),
(517,552,o),
(450,608,o),
(382,608,cs),
(345,608,o),
(281,595,o),
(203,523,cs),
(130,455,l),
(130,418,l),
(171,468,o),
(290,508,o),
(351,508,cs),
(426,508,o),
(437,442,o),
(437,343,cs)
);
}
);
width = 600;
}
);
},
{
export = 0;
glyphname = n.005;
lastChange = "2022-10-12 10:57:40 +0000";
layers = (
{
guides = (
{
angle = 124;
pos = (582,0);
},
{
angle = 100;
pos = (228,0);
}
);
layerId = m01;
shapes = (
{
closed = 1;
nodes = (
(163,600,l),
(18,600,l),
(83,540,l),
(83,160,l),
(33,85,l),
(18,0,l),
(228,0,l),
(213,85,l),
(163,160,l)
);
},
{
closed = 1;
nodes = (
(437,160,l),
(387,100,l),
(372,0,l),
(582,0,l),
(567,100,l),
(517,160,l),
(517,449,ls),
(517,552,o),
(450,608,o),
(382,608,cs),
(345,608,o),
(281,579,o),
(203,507,cs),
(130,439,l),
(130,404,l),
(171,445,o),
(290,478,o),
(351,478,cs),
(426,478,o),
(437,424,o),
(437,343,cs)
);
}
);
width = 600;
}
);
},
{
export = 0;
glyphname = o.005;
lastChange = "2022-10-12 10:58:11 +0000";
layers = (
{
layerId = m01;
shapes = (
{
closed = 1;
nodes = (
(482,152,ls),
(509,179,o),
(528,260,o),
(528,358,cs),
(528,453,o),
(446,553,o),
(322,608,c),
(162,448,ls),
(132,418,o),
(112,336,o),
(112,242,cs),
(112,144,o),
(196,44,o),
(322,-8,c)
);
},
{
closed = 1;
nodes = (
(172,299,l),
(322,450,l),
(472,299,l),
(322,150,l)
);
}
);
width = 600;
}
);
},
{
export = 0;
glyphname = o.006;
lastChange = "2022-10-12 10:58:11 +0000";
layers = (
{
layerId = m01;
shapes = (
{
closed = 1;
nodes = (
(432,162,l),
(471,219,o),
(488,275,o),
(488,350,cs),
(488,467,o),
(426,545,o),
(282,608,c),
(132,438,l),
(90,381,o),
(72,325,o),
(72,250,cs),
(72,129,o),
(135,52,o),
(282,-8,c)
);
},
{
closed = 1;
nodes = (
(132,370,l),
(282,542,l),
(432,228,l),
(282,58,l)
);
}
);
width = 560;
}
);
},
{
export = 0;
glyphname = o.007;
lastChange = "2022-10-12 10:58:11 +0000";
layers = (
{
guides = (
{
angle = 70;
pos = (371,424);
},
{
pos = (282,136);
},
{
angle = 48.4474;
pos = (205,459);
}
);
layerId = m01;
shapes = (
{
closed = 1;
nodes = (
(432,162,ls),
(478,214,o),
(488,275,o),
(488,350,cs),
(488,542,o),
(432,576,o),
(282,608,c),
(132,438,ls),
(86,386,o),
(72,325,o),
(72,250,cs),
(72,58,o),
(132,24,o),
(282,-8,c)
);
},
{
closed = 1;
nodes = (
(150,130,o),
(138,304,o),
(186,438,c),
(224,480,l),
(414,470,o),
(426,296,o),
(378,162,c),
(340,120,l)
);
}
);
width = 560;
}
);
},
{
export = 0;
glyphname = v.001;
lastChange = "2022-10-18 16:19:11 +0000";
layers = (
{
background = {
shapes = (
{
closed = 1;
nodes = (
(570,368,l),
(570,500,o),
(464,608,o),
(273,608,c),
(183,518,ls),
(96,431,o),
(50,326,o),
(50,232,cs),
(50,100,o),
(157,-8,o),
(347,-8,c),
(437,82,ls),
(524,169,o),
(570,274,o),
(570,368,c),
(491,286,l),
(491,229,o),
(448,168,o),
(414,134,cs),
(396,116,l),
(244,116,o),
(129,181,o),
(129,314,cs),
(129,371,o),
(172,432,o),
(206,466,cs),
(224,484,l),
(376,484,o),
(491,419,o),
(491,286,c)
);
}
);
};
layerId = m01;
shapes = (
{
closed = 1;
nodes = (
(264,-4,l),
(374,-4,l),
(557,600,l),
(487,600,l),
(325,59,l),
(352,59,l),
(169,602,l),
(59,600,l)
);
}
);
width = 620;
}
);
},
{
export = 0;
glyphname = v.002;
lastChange = "2022-10-18 19:07:15 +0000";
layers = (
{
background = {
shapes = (
{
closed = 1;
nodes = (
(541,368,l),
(541,500,o),
(435,608,o),
(244,608,c),
(154,518,ls),
(67,431,o),
(21,326,o),
(21,232,cs),
(21,100,o),
(128,-8,o),
(318,-8,c),
(408,82,ls),
(495,169,o),
(541,274,o),
(541,368,c),
(462,286,l),
(462,229,o),
(419,168,o),
(385,134,cs),
(367,116,l),
(215,116,o),
(100,181,o),
(100,314,cs),
(100,371,o),
(143,432,o),
(177,466,cs),
(195,484,l),
(347,484,o),
(462,419,o),
(462,286,c)
);
}
);
};
guides = (
{
angle = 255.8089;
pos = (430,383);
},
{
angle = 106.4644;
pos = (303,123);
},
{
angle = -73.4052;
pos = (145,298);
}
);
layerId = m01;
shapes = (
{
closed = 1;
nodes = (
(258,-2,o),
(284,-4,o),
(309,-4,c),
(399,86,ls),
(462,149,o),
(504,222,o),
(522,293,cs),
(602,600,l),
(532,600,l),
(443,245,ls),
(429,189,o),
(397,159,o),
(376,138,cs),
(358,120,l),
(339,120,o),
(321,122,o),
(303,125,c),
(165,602,l),
(55,600,l),
(233,4,l)
);
}
);
width = 657;
}
);
},
{
export = 0;
glyphname = v.003;
lastChange = "2022-10-18 19:07:15 +0000";
layers = (
{
background = {
shapes = (
{
closed = 1;
nodes = (
(541,368,l),
(541,500,o),
(435,608,o),
(244,608,c),
(154,518,ls),
(67,431,o),
(21,326,o),
(21,232,cs),
(21,100,o),
(128,-8,o),
(318,-8,c),
(408,82,ls),
(495,169,o),
(541,274,o),
(541,368,c),
(462,286,l),
(462,229,o),
(419,168,o),
(385,134,cs),
(367,116,l),
(215,116,o),
(100,181,o),
(100,314,cs),
(100,371,o),
(143,432,o),
(177,466,cs),
(195,484,l),
(347,484,o),
(462,419,o),
(462,286,c)
);
}
);
};
guides = (
{
angle = 255.8089;
pos = (430,383);
}
);
layerId = m01;
shapes = (
{
closed = 1;
nodes = (
(368,138,o),
(341,79,o),
(310,48,cs),
(292,30,l),
(333,-4,l),
(385,46,o),
(427,109,o),
(475,293,cs),
(555,600,l),
(485,600,l),
(388,215,ls)
);
},
{
closed = 1;
nodes = (
(334,19,l),
(165,602,l),
(55,600,l),
(235,-4,l),
(333,-4,l)
);
}
);
width = 610;
}
);
},
{
export = 0;
glyphname = v.004;
lastChange = "2022-10-18 19:07:15 +0000";
layers = (
{
background = {
shapes = (
{
closed = 1;
nodes = (
(541,368,l),
(541,500,o),
(435,608,o),
(244,608,c),
(154,518,ls),
(67,431,o),
(21,326,o),
(21,232,cs),
(21,100,o),
(128,-8,o),
(318,-8,c),
(408,82,ls),
(495,169,o),
(541,274,o),
(541,368,c),
(462,286,l),
(462,229,o),
(419,168,o),
(385,134,cs),
(367,116,l),
(215,116,o),
(100,181,o),
(100,314,cs),
(100,371,o),
(143,432,o),
(177,466,cs),
(195,484,l),
(347,484,o),
(462,419,o),
(462,286,c)
);
}
);
};
guides = (
{
angle = 255.8089;
pos = (430,383);
},
{
angle = 106.4644;
pos = (303,123);
},
{
angle = -73.4052;
pos = (145,298);
}
);
layerId = m01;
shapes = (
{
closed = 1;
nodes = (
(245,-2,o),
(257,-4,o),
(269,-4,c),
(359,86,ls),
(422,149,o),
(464,222,o),
(482,293,cs),
(562,600,l),
(492,600,l),
(403,245,ls),
(389,189,o),
(357,159,o),
(336,138,cs),
(318,120,l),
(313,120,o),
(308,121,o),
(303,122,c),
(165,602,l),
(55,600,l),
(233,1,l)
);
}
);
width = 617;
}
);
},
{
export = 0;
glyphname = v.005;
lastChange = "2022-10-18 19:07:15 +0000";
layers = (
{
background = {
shapes = (
{
closed = 1;
nodes = (
(541,368,l),
(541,500,o),
(435,608,o),
(244,608,c),
(154,518,ls),
(67,431,o),
(21,326,o),
(21,232,cs),
(21,100,o),
(128,-8,o),
(318,-8,c),
(408,82,ls),
(495,169,o),
(541,274,o),
(541,368,c),
(462,286,l),
(462,229,o),
(419,168,o),
(385,134,cs),
(367,116,l),
(215,116,o),
(100,181,o),
(100,314,cs),
(100,371,o),
(143,432,o),
(177,466,cs),
(195,484,l),
(347,484,o),
(462,419,o),
(462,286,c)
);
}
);
};
layerId = m01;
shapes = (
{
closed = 1;
nodes = (
(302,-8,l),
(362,54,o),
(401,124,o),
(419,193,cs),
(524,600,l),
(454,600,l),
(340,145,ls),
(326,89,o),
(295,58,o),
(273,38,cs),
(233,1,l)
);
},
{
closed = 1;
nodes = (
(334,119,l),
(324,119,o),
(313,120,o),
(303,122,c),
(165,602,l),
(55,600,l),
(233,1,l),
(256,-3,o),
(281,-6,o),
(302,-8,c)
);
}
);
width = 579;
}
);
},
{
export = 0;
glyphname = v.006;
lastChange = "2022-10-18 20:35:23 +0000";
layers = (
{
background = {
shapes = (
{
closed = 1;
nodes = (
(533,368,l),
(533,500,o),
(427,608,o),
(236,608,c),
(146,518,ls),
(59,431,o),
(13,326,o),
(13,232,cs),
(13,100,o),
(120,-8,o),
(310,-8,c),
(400,82,ls),
(487,169,o),
(533,274,o),
(533,368,c),
(454,286,l),
(454,229,o),
(411,168,o),
(377,134,cs),
(359,116,l),
(207,116,o),
(92,181,o),
(92,314,cs),
(92,371,o),
(135,432,o),
(169,466,cs),
(187,484,l),
(339,484,o),
(454,419,o),
(454,286,c)
);
}
);
};
guides = (
{
angle = -74.0852;
pos = (162,587);
}
);
layerId = m01;
shapes = (
{
closed = 1;
nodes = (
(294,-8,l),
(354,54,o),
(393,124,o),
(411,193,cs),
(516,600,l),
(446,600,l),
(332,145,ls),
(318,89,o),
(287,58,o),
(265,38,cs),
(225,1,l)
);
},
{
closed = 1;
nodes = (
(326,119,l),
(306,119,o),
(283,123,o),
(271,131,c),
(288,93,l),
(250,282,o),
(207,431,o),
(158,600,c),
(47,600,l),
(225,1,l),
(248,-3,o),
(273,-6,o),
(294,-8,c)
);
},
{
closed = 1;
nodes = (
(245,515,l),
(260,600,l),
(30,600,l),
(45,515,l),
(95,440,l),
(195,440,l)
);
},
{
closed = 1;
nodes = (
(525,515,l),
(540,600,l),
(342,600,l),
(357,515,l),
(407,440,l),
(475,440,l)
);
}
);
width = 570;
}
);
},
{
export = 0;
glyphname = i.w40;
lastChange = "2022-10-18 15:32:34 +0000";
layers = (
{
guides = (
{
angle = 71.2614;
pos = (424,445);
}
);
layerId = m01;
shapes = (
{
closed = 1;
nodes = (
(163,600,l),
(18,650,l),
(83,540,l),
(83,160,l),
(33,85,l),
(18,0,l),
(228,0,l),
(213,85,l),
(163,160,l)
);
},
{
closed = 1;
nodes = (
(188,813,o),
(172,855,o),
(139,866,cs),
(107,877,o),
(69,854,o),
(56,815,cs),
(42,777,o),
(58,735,o),
(91,724,cs),
(123,713,o),
(161,736,o),
(174,775,cs)
);
}
);
width = 246;
}
);
},
{
export = 0;
glyphname = n.w40;
lastChange = "2022-10-18 15:32:34 +0000";
layers = (
{
guides = (
{
angle = 70;
pos = (371,424);
}
);
layerId = m01;
shapes = (
{
closed = 1;
nodes = (
(163,600,l),
(18,650,l),
(83,540,l),
(83,160,l),
(33,85,l),
(18,0,l),
(228,0,l),
(213,85,l),
(163,160,l)
);
},
{
closed = 1;
nodes = (
(437,160,l),
(387,100,l),
(372,0,l),
(582,0,l),
(567,100,l),
(517,160,l),
(517,449,ls),
(517,552,o),
(450,608,o),
(382,608,cs),
(345,608,o),
(281,579,o),
(203,507,cs),
(130,439,l),
(130,404,l),
(171,445,o),
(290,478,o),
(351,478,cs),
(426,478,o),
(437,424,o),
(437,343,cs)
);
}
);
width = 600;
}
);
},
{
export = 0;
glyphname = o.w40;
lastChange = "2022-10-18 15:32:41 +0000";
layers = (
{
background = {
shapes = (
{
closed = 1;
nodes = (
(413,160,l),
(363,100,l),
(348,0,l),
(558,0,l),
(543,100,l),
(493,160,l),
(493,449,ls),
(493,552,o),
(426,608,o),
(358,608,cs),
(321,608,o),
(257,579,o),
(179,507,cs),
(106,439,l),
(106,404,l),
(147,445,o),
(266,478,o),
(327,478,cs),
(402,478,o),
(413,424,o),
(413,343,cs)
);
}
);
};
layerId = m01;
shapes = (
{
closed = 1;
nodes = (
(152,321,o),
(166,414,o),
(190,484,c),
(131,457,l),
(97,529,l),
(84,445,o),
(80,332,o),
(80,151,cs),
(80,48,o),
(160,-8,o),
(228,-8,cs),
(265,-8,o),
(327,21,o),
(398,93,cs),
(457,153,o),
(467,179,o),
(471,224,cs),
(475,272,o),
(480,360,o),
(480,449,cs),
(480,552,o),
(399,608,o),
(331,608,cs),
(294,608,o),
(232,579,o),
(161,507,cs),
(94,439,l),
(97,404,l),
(134,445,o),
(250,478,o),
(311,478,cs),
(386,478,o),
(409,424,o),
(409,343,cs),
(409,270,o),
(401,200,o),
(391,126,c),
(422,168,l),
(371,142,o),
(295,122,o),
(248,122,cs),
(179,122,o),
(152,167,o),
(152,237,cs)
);
}
);
width = 560;
}
);
},
{
export = 0;
glyphname = e.w41;
lastChange = "2022-10-19 09:55:07 +0000";
layers = (
{
background = {
shapes = (
{
closed = 1;
nodes = (
(436,120,ls),
(509,193,o),
(569,308,o),
(569,406,cs),
(569,555,o),
(412,608,o),
(307,608,c),
(178,480,ls),
(105,407,o),
(45,292,o),
(45,194,cs),
(45,45,o),
(202,-8,o),
(307,-8,c)
);
},
{
closed = 1;
nodes = (
(221,120,o),
(131,179,o),
(131,300,cs),
(131,352,o),
(170,407,o),
(201,438,cs),
(243,480,l),
(381,480,o),
(471,421,o),
(471,300,cs),
(471,248,o),
(432,193,o),
(401,162,cs),
(359,120,l)
);
}
);
};
guides = (
{
angle = 224.7771;
pos = (202,300);
}
);
layerId = m01;
shapes = (
{
closed = 1;
nodes = (
(532,406,l),
(506,555,o),
(362,608,o),
(257,608,c),
(128,480,ls),
(61,413,o),
(45,313,o),
(45,214,cs),
(45,65,o),
(202,-8,o),
(327,-8,c),
(456,120,l),
(421,162,l),
(379,120,l),
(186,120,o),
(112,169,o),
(112,284,cs),
(112,346,o),
(123,410,o),
(151,438,cs),
(193,480,l),
(331,480,o),
(431,421,o),
(452,300,c)
);
},
{
closed = 1;
nodes = (
(182,300,l),
(452,300,l),
(452,360,l),
(242,360,l)
);
}
);
width = 567;
}
);
metricLeft = "=o";
},
{
glyphname = "oMonocular-cy";
lastChange = "2022-10-10 19:51:03 +0000";
layers = (
{
layerId = m01;
shapes = (
{
closed = 1;
nodes = (
(582,406,l),
(582,555,o),
(425,608,o),
(320,608,c),
(191,480,ls),
(118,407,o),
(58,292,o),
(58,194,cs),
(58,45,o),
(215,-8,o),
(320,-8,c),
(449,120,ls),
(522,193,o),
(582,308,o),
(582,406,c),
(484,300,l),
(484,248,o),
(445,193,o),
(414,162,cs),
(372,120,l),
(234,120,o),
(144,179,o),
(144,300,cs),
(144,352,o),
(183,407,o),
(214,438,cs),
(256,480,l),
(394,480,o),
(484,421,o),
(484,300,c)
);
},
{
closed = 1;
nodes = (
(316,241,o),
(346,245,o),
(369,277,cs),
(391,308,o),
(387,338,o),
(355,361,cs),
(324,383,o),
(294,379,o),
(271,347,cs),
(249,316,o),
(253,286,o),
(285,263,cs)
);
}
);
width = 640;
}
);
unicode = 42601;
},
{
glyphname = "omultiocular-cy";
lastChange = "2022-10-11 15:42:54 +0000";
layers = (
{
anchors = (
{
name = top1;
pos = (643,1106);
},
{
name = top2;
pos = (1033,1106);
},
{
name = top3;
pos = (1410,1106);
}
);
layerId = m01;
shapes = (
{
closed = 1;
nodes = (
(582,406,l),
(582,555,o),
(425,608,o),
(320,608,c),
(191,480,ls),
(118,407,o),
(58,292,o),
(58,194,cs),
(58,45,o),
(215,-8,o),
(320,-8,c),
(449,120,ls),
(522,193,o),
(582,308,o),
(582,406,c),
(484,300,l),
(484,248,o),
(445,193,o),
(414,162,cs),
(372,120,l),
(234,120,o),
(144,179,o),
(144,300,cs),
(144,352,o),
(183,407,o),
(214,438,cs),
(256,480,l),
(394,480,o),
(484,421,o),
(484,300,c)
);
},
{
closed = 1;
nodes = (
(316,241,o),
(346,245,o),
(369,277,cs),
(391,308,o),
(387,338,o),
(355,361,cs),
(324,383,o),
(294,379,o),
(271,347,cs),
(249,316,o),
(253,286,o),
(285,263,cs)
);
},
{
closed = 1;
nodes = (
(982,406,l),
(982,555,o),
(825,608,o),
(720,608,c),
(591,480,ls),
(518,407,o),
(458,292,o),
(458,194,cs),
(458,45,o),
(615,-8,o),
(720,-8,c),
(849,120,ls),
(922,193,o),
(982,308,o),
(982,406,c),
(884,300,l),
(884,248,o),
(845,193,o),
(814,162,cs),
(772,120,l),
(634,120,o),
(544,179,o),
(544,300,cs),
(544,352,o),
(583,407,o),
(614,438,cs),
(656,480,l),
(794,480,o),
(884,421,o),
(884,300,c)
);
},
{
closed = 1;
nodes = (
(716,241,o),
(746,245,o),
(769,277,cs),
(791,308,o),
(787,338,o),
(755,361,cs),
(724,383,o),
(694,379,o),
(671,347,cs),
(649,316,o),
(653,286,o),
(685,263,cs)
);
},
{
closed = 1;
nodes = (
(1382,406,l),
(1382,555,o),
(1225,608,o),
(1120,608,c),
(991,480,ls),
(918,407,o),
(858,292,o),
(858,194,cs),
(858,45,o),
(1015,-8,o),
(1120,-8,c),
(1249,120,ls),
(1322,193,o),
(1382,308,o),
(1382,406,c),
(1284,300,l),
(1284,248,o),
(1245,193,o),
(1214,162,cs),
(1172,120,l),
(1034,120,o),
(944,179,o),
(944,300,cs),
(944,352,o),
(983,407,o),
(1014,438,cs),
(1056,480,l),
(1194,480,o),
(1284,421,o),
(1284,300,c)
);
},
{
closed = 1;
nodes = (
(1116,241,o),
(1146,245,o),
(1169,277,cs),
(1191,308,o),
(1187,338,o),
(1155,361,cs),
(1124,383,o),
(1094,379,o),
(1071,347,cs),
(1049,316,o),
(1053,286,o),
(1085,263,cs)
);
},
{
closed = 1;
nodes = (
(1782,406,l),
(1782,555,o),
(1625,608,o),
(1520,608,c),
(1391,480,ls),
(1318,407,o),
(1258,292,o),
(1258,194,cs),
(1258,45,o),
(1415,-8,o),
(1520,-8,c),
(1649,120,ls),
(1722,193,o),
(1782,308,o),
(1782,406,c),
(1684,300,l),
(1684,248,o),
(1645,193,o),
(1614,162,cs),
(1572,120,l),
(1434,120,o),
(1344,179,o),
(1344,300,cs),
(1344,352,o),
(1383,407,o),
(1414,438,cs),
(1456,480,l),
(1594,480,o),
(1684,421,o),
(1684,300,c)
);
},
{
closed = 1;
nodes = (
(1516,241,o),
(1546,245,o),
(1569,277,cs),
(1591,308,o),
(1587,338,o),
(1555,361,cs),
(1524,383,o),
(1494,379,o),
(1471,347,cs),
(1449,316,o),
(1453,286,o),
(1485,263,cs)
);
},
{
closed = 1;
nodes = (
(839,805,l),
(839,954,o),
(682,1007,o),
(577,1007,c),
(448,879,ls),
(375,806,o),
(315,691,o),
(315,593,cs),
(315,444,o),
(472,391,o),
(577,391,c),
(706,519,ls),
(779,592,o),
(839,707,o),
(839,805,c),
(741,699,l),
(741,647,o),
(702,592,o),
(671,561,cs),
(629,519,l),
(491,519,o),
(401,578,o),
(401,699,cs),
(401,751,o),
(440,806,o),
(471,837,cs),
(513,879,l),
(651,879,o),
(741,820,o),
(741,699,c)
);
},
{
closed = 1;
nodes = (
(573,640,o),
(603,644,o),
(626,676,cs),
(648,707,o),
(644,737,o),
(612,760,cs),
(581,782,o),
(551,778,o),
(528,746,cs),
(506,715,o),
(510,685,o),
(542,662,cs)
);
},
{
closed = 1;
nodes = (
(1239,805,l),
(1239,954,o),
(1082,1007,o),
(977,1007,c),
(848,879,ls),
(775,806,o),
(715,691,o),
(715,593,cs),
(715,444,o),
(872,391,o),
(977,391,c),
(1106,519,ls),
(1179,592,o),
(1239,707,o),
(1239,805,c),
(1141,699,l),
(1141,647,o),
(1102,592,o),
(1071,561,cs),
(1029,519,l),
(891,519,o),
(801,578,o),
(801,699,cs),
(801,751,o),
(840,806,o),
(871,837,cs),
(913,879,l),
(1051,879,o),
(1141,820,o),
(1141,699,c)
);
},
{
closed = 1;
nodes = (
(973,640,o),
(1003,644,o),
(1026,676,cs),
(1048,707,o),
(1044,737,o),
(1012,760,cs),
(981,782,o),
(951,778,o),
(928,746,cs),
(906,715,o),
(910,685,o),
(942,662,cs)
);
},
{
closed = 1;
nodes = (
(1639,805,l),
(1639,954,o),
(1482,1007,o),
(1377,1007,c),
(1248,879,ls),
(1175,806,o),
(1115,691,o),
(1115,593,cs),
(1115,444,o),
(1272,391,o),
(1377,391,c),
(1506,519,ls),
(1579,592,o),
(1639,707,o),
(1639,805,c),
(1541,699,l),
(1541,647,o),
(1502,592,o),
(1471,561,cs),
(1429,519,l),
(1291,519,o),
(1201,578,o),
(1201,699,cs),
(1201,751,o),
(1240,806,o),
(1271,837,cs),
(1313,879,l),
(1451,879,o),
(1541,820,o),
(1541,699,c)
);
},
{
closed = 1;
nodes = (
(1373,640,o),
(1403,644,o),
(1426,676,cs),
(1448,707,o),
(1444,737,o),
(1412,760,cs),
(1381,782,o),
(1351,778,o),
(1328,746,cs),
(1306,715,o),
(1310,685,o),
(1342,662,cs)
);
},
{
closed = 1;
nodes = (
(725,7,l),
(725,156,o),
(568,209,o),
(463,209,c),
(334,81,ls),
(261,8,o),
(201,-107,o),
(201,-205,cs),
(201,-354,o),
(358,-407,o),
(463,-407,c),
(592,-279,ls),
(665,-206,o),
(725,-91,o),
(725,7,c),
(627,-99,l),
(627,-151,o),
(588,-206,o),
(557,-237,cs),
(515,-279,l),
(377,-279,o),
(287,-220,o),
(287,-99,cs),
(287,-47,o),
(326,8,o),
(357,39,cs),
(399,81,l),
(537,81,o),
(627,22,o),
(627,-99,c)
);
},
{
closed = 1;
nodes = (
(459,-158,o),
(489,-154,o),
(512,-122,cs),
(534,-91,o),
(530,-61,o),
(498,-38,cs),
(467,-16,o),
(437,-20,o),
(414,-52,cs),
(392,-83,o),
(396,-113,o),
(428,-136,cs)
);
},
{
closed = 1;
nodes = (
(1125,7,l),
(1125,156,o),
(968,209,o),
(863,209,c),
(734,81,ls),
(661,8,o),
(601,-107,o),
(601,-205,cs),
(601,-354,o),
(758,-407,o),
(863,-407,c),
(992,-279,ls),
(1065,-206,o),
(1125,-91,o),
(1125,7,c),
(1027,-99,l),
(1027,-151,o),
(988,-206,o),
(957,-237,cs),
(915,-279,l),
(777,-279,o),
(687,-220,o),
(687,-99,cs),
(687,-47,o),
(726,8,o),
(757,39,cs),
(799,81,l),
(937,81,o),
(1027,22,o),
(1027,-99,c)
);
},
{
closed = 1;
nodes = (
(859,-158,o),
(889,-154,o),
(912,-122,cs),
(934,-91,o),
(930,-61,o),
(898,-38,cs),
(867,-16,o),
(837,-20,o),
(814,-52,cs),
(792,-83,o),
(796,-113,o),
(828,-136,cs)
);
},
{
closed = 1;
nodes = (
(1525,7,l),
(1525,156,o),
(1368,209,o),
(1263,209,c),
(1134,81,ls),
(1061,8,o),
(1001,-107,o),
(1001,-205,cs),
(1001,-354,o),
(1158,-407,o),
(1263,-407,c),
(1392,-279,ls),
(1465,-206,o),
(1525,-91,o),
(1525,7,c),
(1427,-99,l),
(1427,-151,o),
(1388,-206,o),
(1357,-237,cs),
(1315,-279,l),
(1177,-279,o),
(1087,-220,o),
(1087,-99,cs),
(1087,-47,o),
(1126,8,o),
(1157,39,cs),
(1199,81,l),
(1337,81,o),
(1427,22,o),
(1427,-99,c)
);
},
{
closed = 1;
nodes = (
(1259,-158,o),
(1289,-154,o),
(1312,-122,cs),
(1334,-91,o),
(1330,-61,o),
(1298,-38,cs),
(1267,-16,o),
(1237,-20,o),
(1214,-52,cs),
(1192,-83,o),
(1196,-113,o),
(1228,-136,cs)
);
}
);
width = 1840;
}
);
unicode = 42606;
},
{
export = 0;
glyphname = eight.amper;
lastChange = "2022-10-10 21:04:31 +0000";
layers = (
{
layerId = m01;
shapes = (
{
closed = 1;
nodes = (
(551,357,l),
(551,488,o),
(413,535,o),
(320,535,c),
(206,422,ls),
(142,358,o),
(89,256,o),
(89,170,cs),
(89,39,o),
(227,-8,o),
(320,-8,c),
(434,105,ls),
(498,169,o),
(551,270,o),
(551,357,c),
(464,263,l),
(464,218,o),
(430,169,o),
(403,142,cs),
(366,105,l),
(244,105,o),
(165,157,o),
(165,263,cs),
(165,309,o),
(199,358,o),
(227,385,cs),
(264,422,l),
(385,422,o),
(464,370,o),
(464,263,c)
);
},
{
closed = 1;
nodes = (
(560,717,l),
(560,828,o),
(443,868,o),
(364,868,c),
(267,772,ls),
(213,718,o),
(168,632,o),
(168,558,cs),
(168,447,o),
(285,407,o),
(364,407,c),
(461,503,ls),
(515,557,o),
(560,643,o),
(560,717,c),
(487,638,l),
(487,599,o),
(458,557,o),
(434,534,cs),
(403,503,l),
(300,503,o),
(232,547,o),
(232,638,cs),
(232,676,o),
(261,718,o),
(285,741,cs),
(316,772,l),
(419,772,o),
(487,728,o),
(487,638,c)
);
}
);
width = 600;
}
);
},
{
glyphname = quoteright;
lastChange = "2022-10-10 20:34:35 +0000";
layers = (
{
layerId = m01;
shapes = (
{
closed = 1;
nodes = (
(55,448,l),
(151,507,o),
(200,620,o),
(200,696,cs),
(200,759,o),
(160,805,o),
(70,805,c),
(40,677,l),
(94,677,o),
(124,654,o),
(124,594,c)
);
}
);
width = 240;
}
);
unicode = 8217;
},
{
glyphname = balloon;
lastChange = "2022-10-10 20:03:19 +0000";
layers = (
{
layerId = m01;
shapes = (
{
closed = 1;
nodes = (
(429,120,ls),
(502,193,o),
(562,308,o),
(562,406,cs),
(562,555,o),
(405,608,o),
(300,608,cs),
(195,608,o),
(38,555,o),
(38,406,cs),
(38,308,o),
(98,193,o),
(171,120,cs),
(300,-8,l)
);
},
{
closed = 1;
nodes = (
(142,344,l),
(300,502,l),
(458,344,l),
(300,186,l)
);
}
);
width = 600;
}
);
unicode = 127880;
},
{
glyphname = ampersand;
lastChange = "2022-10-12 16:41:08 +0000";
layers = (
{
guides = (
{
pos = (139,640);
},
{
pos = (139,480);
},
{
pos = (139,320);
},
{
pos = (139,160);
},
{
angle = 222.9691;
pos = (180,678);
}
);
layerId = m01;
shapes = (
{
closed = 1;
nodes = (
(581,4,o),
(695,116,o),
(750,172,c),
(707,201,l),
(690,168,o),
(664,123,o),
(596,123,cs),
(505,123,o),
(447,350,o),
(388,456,cs),
(338,546,o),
(296,627,o),
(231,712,c),
(216,712,l),
(116,618,l),
(176,540,o),
(222,464,o),
(267,380,cs),
(320,282,o),
(350,168,o),
(407,72,cs),
(427,39,o),
(462,4,o),
(501,4,cs)
);
},
{
closed = 1;
nodes = (
(247,10,o),
(327,44,o),
(375,100,cs),
(672,447,l),
(672,460,l),
(672,518,l),
(637,518,o),
(588,493,o),
(534,411,cs),
(393,199,ls),
(366,158,o),
(319,108,o),
(269,108,cs),
(177,108,o),
(128,160,o),
(128,271,cs),
(128,365,o),
(219,427,o),
(279,483,c),
(254,529,l),
(126,400,ls),
(58,332,o),
(34,252,o),
(34,183,cs),
(34,89,o),
(83,10,o),
(174,10,cs)
);
},
{
closed = 1;
nodes = (
(478,588,l),
(566,668,l),
(582,699,o),
(589,724,o),
(589,744,cs),
(589,793,o),
(541,808,o),
(478,808,cs),
(393,808,o),
(282,774,o),
(216,712,cs),
(116,618,l),
(143,609,l),
(190,650,o),
(325,683,o),
(394,683,cs),
(463,683,o),
(486,672,o),
(486,649,cs),
(486,636,o),
(479,618,o),
(468,598,c)
);
},
{
closed = 1;
nodes = (
(672,244,l),
(672,447,l),
(566,447,l),
(648,244,l)
);
}
);
width = 770;
}
);
unicode = 38;
},
{
glyphname = ampersand.001;
layers = (
{
guides = (
{
pos = (139,640);
},
{
pos = (139,480);
},
{
pos = (139,320);
},
{
pos = (139,160);
}
);
layerId = m01;
shapes = (
{
closed = 1;
nodes = (
(581,4,o),
(695,116,o),
(750,172,c),
(707,201,l),
(690,168,o),
(664,123,o),
(596,123,cs),
(505,123,o),
(447,350,o),
(388,456,cs),
(338,546,o),
(296,627,o),
(231,712,c),
(216,712,l),
(93,648,l),
(164,559,o),
(216,475,o),
(267,380,cs),
(320,282,o),
(350,168,o),
(407,72,cs),
(427,39,o),
(462,4,o),
(501,4,cs)
);
},
{
closed = 1;
nodes = (
(247,10,o),
(327,44,o),
(375,100,cs),
(672,447,l),
(649,460,l),
(550,418,l),
(392,180,ls),
(365,139,o),
(319,95,o),
(269,95,cs),
(177,95,o),
(128,160,o),
(128,261,cs),
(128,365,o),
(219,427,o),
(279,483,c),
(244,529,l),
(116,390,ls),
(60,330,o),
(34,252,o),
(34,183,cs),
(34,89,o),
(83,10,o),
(174,10,cs)
);
},
{
closed = 1;
nodes = (
(494,637,o),
(574,677,o),
(574,747,cs),
(574,784,o),
(517,806,o),
(480,806,cs),
(404,806,o),
(277,778,o),
(93,648,c),
(181,669,l),
(254,693,o),
(324,740,o),
(401,740,cs),
(442,740,o),
(456,723,o),
(456,703,cs),
(456,676,o),
(438,642,o),
(422,626,c),
(430,614,l)
);
}
);
width = 770;
}
);
},
{
glyphname = ampersand.draft;
lastChange = "2022-10-11 09:26:06 +0000";
layers = (
{
layerId = m01;
shapes = (
{
closed = 1;
nodes = (
(690,0,l),
(520,86,o),
(196,407,o),
(196,621,cs),
(196,663,o),
(227,707,o),
(252,732,cs),
(286,765,l),
(396,765,o),
(469,718,o),
(469,621,c),
(547,706,l),
(547,825,o),
(421,868,o),
(337,868,c),
(234,765,ls),
(175,706,o),
(127,615,o),
(127,536,cs),
(127,369,o),
(388,86,o),
(538,0,c)
);
},
{
closed = 1;
nodes = (
(492,133,ls),
(569,209,o),
(595,253,o),
(595,312,c),
(645,387,l),
(660,472,l),
(515,472,l),
(515,387,l),
(515,352,l),
(515,254,o),
(502,226,o),
(438,160,cs),
(392,113,l),
(239,113,o),
(139,178,o),
(139,312,cs),
(139,370,o),
(182,431,o),
(216,465,c),
(208,531,l),
(126,451,o),
(60,324,o),
(60,216,cs),
(60,51,o),
(234,-8,o),
(350,-8,c)
);
}
);
width = 750;
}
);
},
{
glyphname = dotaccentcomb;
lastChange = "2022-10-17 15:22:18 +0000";
layers = (
{
anchors = (
{
name = _top;
pos = (77,600);
},
{
name = top;
pos = (77,874);
}
);
layerId = m01;
shapes = (
{
closed = 1;
nodes = (
(152,772,o),
(154,784,o),
(154,796,cs),
(154,837,o),
(128,874,o),
(86,874,cs),
(53,874,o),
(19,848,o),
(6,809,cs),
(2,798,o),
(0,786,o),
(0,774,cs),
(0,733,o),
(26,696,o),
(68,696,cs),
(101,696,o),
(135,722,o),
(148,761,cs)
);
}
);
width = 154;
}
);
unicode = 775;
},
{
glyphname = horsecomb;
lastChange = "2022-10-18 20:28:03 +0000";
layers = (
{
anchors = (
{
name = _top;
pos = (285,600);
}
);
layerId = m01;
shapes = (
{
closed = 1;
nodes = (
(217,446,o),
(238,433,o),
(254,411,c),
(254,392,o),
(235,385,o),
(211,385,c),
(189,448,l)
);
},
{
closed = 1;
nodes = (
(303,190,o),
(295,203,o),
(283,203,cs),
(274,203,o),
(267,194,o),
(267,183,cs),
(267,171,o),
(276,155,o),
(289,155,cs),
(297,155,o),
(303,164,o),
(303,175,cs)
);
},
{
closed = 1;
nodes = (
(317,203,o),
(310,190,o),
(310,175,cs),
(310,164,o),
(314,155,o),
(323,155,cs),
(333,155,o),
(344,168,o),
(344,183,cs),
(344,194,o),
(339,203,o),
(329,203,cs)
);
},
{
closed = 1;
nodes = (
(402,385,l),
(378,385,o),
(359,392,o),
(359,411,c),
(375,433,o),
(396,446,o),
(424,448,c)
);
}
);
width = 570;
}
);
},
{
export = 0;
glyphname = Hoof.simple.wide_tmb.001;
lastChange = "2022-10-17 16:11:00 +0000";
layers = (
{
background = {
shapes = (
{
closed = 1;
nodes = (
(234,56,ls),
(260,56,o),
(277,65,o),
(294,83,cs),
(298,88,o),
(304,102,o),
(304,107,c),
(304,118,o),
(296,150,o),
(295,156,cs),
(289,183,ls),
(287,193,o),
(281,222,o),
(281,226,c),
(281,233,o),
(283,239,o),
(283,246,c),
(283,264,o),
(270,280,o),
(259,296,cs),
(242,320,ls),
(229,339,o),
(224,363,o),
(224,382,c),
(224,409,o),
(244,437,o),
(244,464,c),
(244,486,o),
(239,499,o),
(232,519,cs),
(224,541,ls),
(217,561,o),
(212,594,o),
(212,624,cs),
(212,679,l),
(172,679,l),
(172,56,l)
);
}
);
};
layerId = m01;
shapes = (
{
closed = 1;
nodes = (
(259,0,ls),
(296,0,o),
(335,24,o),
(335,39,c),
(279,209,l),
(242,264,ls),
(229,283,o),
(224,307,o),
(224,326,c),
(224,623,l),
(172,623,l),
(172,0,l)
);
},
{
closed = 1;
nodes = (
(172,623,l),
(120,623,l),
(120,326,l),
(120,307,o),
(115,283,o),
(102,264,cs),
(65,209,l),
(9,39,l),
(9,24,o),
(48,0,o),
(85,0,cs),
(172,0,l)
);
}
);
width = 344;
}
);
},
{
glyphname = Hoof.lin;
lastChange = "2022-10-12 10:57:24 +0000";
layers = (
{
background = {
shapes = (
{
closed = 1;
nodes = (
(234,56,ls),
(260,56,o),
(277,65,o),
(294,83,cs),
(298,88,o),
(304,102,o),
(304,107,c),
(304,118,o),
(296,150,o),
(295,156,cs),
(289,183,ls),
(287,193,o),
(281,222,o),
(281,226,c),
(281,233,o),
(283,239,o),
(283,246,c),
(283,264,o),
(270,280,o),
(259,296,cs),
(242,320,ls),
(229,339,o),
(224,363,o),
(224,382,c),
(224,409,o),
(244,437,o),
(244,464,c),
(244,486,o),
(239,499,o),
(232,519,cs),
(224,541,ls),
(217,561,o),
(212,594,o),
(212,624,cs),
(212,679,l),
(172,679,l),
(172,56,l)
);
}
);
};
guides = (
{
angle = 100.3345;
pos = (295,180);
},
{
angle = 90;
pos = (310,115);
}
);
layerId = m01;
shapes = (
{
closed = 1;
nodes = (
(302,0,l),
(272,163,l),
(222,243,l),
(222,560,l),
(172,560,l),
(172,0,l)
);
},
{
closed = 1;
nodes = (
(172,560,l),
(122,560,l),
(122,243,l),
(72,163,l),
(42,0,l),
(172,0,l)
);
}
);
width = 344;
}
);
},
{
glyphname = Hoof.simple;
lastChange = "2022-10-12 10:57:24 +0000";
layers = (
{
background = {
shapes = (
{
closed = 1;
nodes = (
(234,56,ls),
(260,56,o),
(277,65,o),
(294,83,cs),
(298,88,o),
(304,102,o),
(304,107,c),
(304,118,o),
(296,150,o),
(295,156,cs),
(289,183,ls),
(287,193,o),
(281,222,o),
(281,226,c),
(281,233,o),
(283,239,o),
(283,246,c),
(283,264,o),
(270,280,o),
(259,296,cs),
(242,320,ls),
(229,339,o),
(224,363,o),
(224,382,c),
(224,409,o),
(244,437,o),
(244,464,c),
(244,486,o),
(239,499,o),
(232,519,cs),
(224,541,ls),
(217,561,o),
(212,594,o),
(212,624,cs),
(212,679,l),
(172,679,l),
(172,56,l)
);
}
);
};
layerId = m01;
shapes = (
{
closed = 1;
nodes = (
(234,0,ls),
(271,0,o),
(310,24,o),
(310,39,c),
(279,209,l),
(242,264,ls),
(229,283,o),
(224,307,o),
(224,326,c),
(224,623,l),
(172,623,l),
(172,0,l)
);
},
{
closed = 1;
nodes = (
(172,623,l),
(120,623,l),
(120,326,l),
(120,307,o),
(115,283,o),
(102,264,cs),
(65,209,l),
(34,39,l),
(34,24,o),
(73,0,o),
(110,0,cs),
(172,0,l)
);
}
);
width = 344;
}
);
},
{
export = 0;
glyphname = Hoof;
lastChange = "2022-10-12 10:57:14 +0000";
layers = (
{
backgroundImage = {
imagePath = image/HoofFront.png;
locked = 1;
pos = (-28,3);
scale = (1.0741,1.0741);
};
layerId = m01;
shapes = (
{
closed = 1;
nodes = (
(234,56,ls),
(260,56,o),
(277,65,o),
(294,83,cs),
(298,88,o),
(304,102,o),
(304,107,c),
(304,118,o),
(296,150,o),
(295,156,cs),
(289,183,ls),
(287,193,o),
(281,222,o),
(281,226,c),
(281,233,o),
(283,239,o),
(283,246,c),
(283,264,o),
(270,280,o),
(259,296,cs),
(242,320,ls),
(229,339,o),
(224,363,o),
(224,382,c),
(224,409,o),
(244,437,o),
(244,464,c),
(244,486,o),
(239,499,o),
(232,519,cs),
(224,541,ls),
(217,561,o),
(212,594,o),
(212,624,cs),
(212,679,l),
(172,679,l),
(172,56,l)
);
}
);
width = 344;
}
);
},
{
export = 0;
glyphname = pen.o;
lastChange = "2022-10-12 10:57:06 +0000";
layers = (
{
layerId = m01;
shapes = (
{
closed = 1;
nodes = (
(480,274,l),
(462,282,l),
(386,162,l),
(404,154,l)
);
}
);
width = 600;
}
);
},
{
export = 0;
glyphname = Hoof.simple.wide_mb;
lastChange = "2022-10-12 10:57:14 +0000";
layers = (
{
background = {
shapes = (
{
closed = 1;
nodes = (
(234,56,ls),
(260,56,o),
(277,65,o),
(294,83,cs),
(298,88,o),
(304,102,o),
(304,107,c),
(304,118,o),
(296,150,o),
(295,156,cs),
(289,183,ls),
(287,193,o),
(281,222,o),
(281,226,c),
(281,233,o),
(283,239,o),
(283,246,c),
(283,264,o),
(270,280,o),
(259,296,cs),
(242,320,ls),
(229,339,o),
(224,363,o),
(224,382,c),
(224,409,o),
(244,437,o),
(244,464,c),
(244,486,o),
(239,499,o),
(232,519,cs),
(224,541,ls),
(217,561,o),
(212,594,o),
(212,624,cs),
(212,679,l),
(172,679,l),
(172,56,l)
);
}
);
};
layerId = m01;
shapes = (
{
closed = 1;
nodes = (
(259,0,ls),
(296,0,o),
(335,24,o),
(335,39,c),
(304,209,l),
(250,264,ls),
(231,283,o),
(224,307,o),
(224,326,c),
(224,623,l),
(172,623,l),
(172,0,l)
);
},
{
closed = 1;
nodes = (
(172,623,l),
(120,623,l),
(120,326,l),
(120,307,o),
(113,283,o),
(94,264,cs),
(40,209,l),
(9,39,l),
(9,24,o),
(48,0,o),
(85,0,cs),
(172,0,l)
);
}
);
width = 344;
}
);
},
{
export = 0;
glyphname = Hoof.simple.wide_t;
lastChange = "2022-10-12 10:57:14 +0000";
layers = (
{
background = {
shapes = (
{
closed = 1;
nodes = (
(234,56,ls),
(260,56,o),
(277,65,o),
(294,83,cs),
(298,88,o),
(304,102,o),
(304,107,c),
(304,118,o),
(296,150,o),
(295,156,cs),
(289,183,ls),
(287,193,o),
(281,222,o),
(281,226,c),
(281,233,o),
(283,239,o),
(283,246,c),
(283,264,o),
(270,280,o),
(259,296,cs),
(242,320,ls),
(229,339,o),
(224,363,o),
(224,382,c),
(224,409,o),
(244,437,o),
(244,464,c),
(244,486,o),
(239,499,o),
(232,519,cs),
(224,541,ls),
(217,561,o),
(212,594,o),
(212,624,cs),
(212,679,l),
(172,679,l),
(172,56,l)
);
}
);
};
layerId = m01;
shapes = (
{
closed = 1;
nodes = (
(234,0,ls),
(271,0,o),
(310,24,o),
(310,39,c),
(279,209,l),
(260,270,ls),
(252,294,o),
(249,318,o),
(249,339,c),
(249,623,l),
(172,623,l),
(172,0,l)
);
},
{
closed = 1;
nodes = (
(172,623,l),
(95,623,l),
(95,339,l),
(95,318,o),
(92,294,o),
(84,270,cs),
(65,209,l),
(34,39,l),
(34,24,o),
(73,0,o),
(110,0,cs),
(172,0,l)
);
}
);
width = 344;
}
);
},
{
export = 0;
glyphname = Hoof.simple.wide_tm;
lastChange = "2022-10-12 10:57:14 +0000";
layers = (
{
background = {
shapes = (
{
closed = 1;
nodes = (
(234,56,ls),
(260,56,o),
(277,65,o),
(294,83,cs),
(298,88,o),
(304,102,o),
(304,107,c),
(304,118,o),
(296,150,o),
(295,156,cs),
(289,183,ls),
(287,193,o),
(281,222,o),
(281,226,c),
(281,233,o),
(283,239,o),
(283,246,c),
(283,264,o),
(270,280,o),
(259,296,cs),
(242,320,ls),
(229,339,o),
(224,363,o),
(224,382,c),
(224,409,o),
(244,437,o),
(244,464,c),
(244,486,o),
(239,499,o),
(232,519,cs),
(224,541,ls),
(217,561,o),
(212,594,o),
(212,624,cs),
(212,679,l),
(172,679,l),
(172,56,l)
);
}
);
};
layerId = m01;
shapes = (
{
closed = 1;
nodes = (
(234,0,ls),
(271,0,o),
(310,24,o),
(310,39,c),
(304,209,l),
(267,264,ls),
(254,283,o),
(249,307,o),
(249,326,c),
(249,623,l),
(172,623,l),
(172,0,l)
);
},
{
closed = 1;
nodes = (
(172,623,l),
(95,623,l),
(95,326,l),
(95,307,o),
(90,283,o),
(77,264,cs),
(40,209,l),
(34,39,l),
(34,24,o),
(73,0,o),
(110,0,cs),
(172,0,l)
);
}
);
width = 344;
}
);
},
{
export = 0;
glyphname = Hoof.simple.wide_tmb;
lastChange = "2022-10-12 10:57:14 +0000";
layers = (
{
background = {
shapes = (
{
closed = 1;
nodes = (
(234,56,ls),
(260,56,o),
(277,65,o),
(294,83,cs),
(298,88,o),
(304,102,o),
(304,107,c),
(304,118,o),
(296,150,o),
(295,156,cs),
(289,183,ls),
(287,193,o),
(281,222,o),
(281,226,c),
(281,233,o),
(283,239,o),
(283,246,c),
(283,264,o),
(270,280,o),
(259,296,cs),
(242,320,ls),
(229,339,o),
(224,363,o),
(224,382,c),
(224,409,o),
(244,437,o),
(244,464,c),
(244,486,o),
(239,499,o),
(232,519,cs),
(224,541,ls),
(217,561,o),
(212,594,o),
(212,624,cs),
(212,679,l),
(172,679,l),
(172,56,l)
);
}
